<?xml version="1.0" encoding="UTF-8"?>
<svg id="Layer_1" data-name="Layer 1" xmlns="http://www.w3.org/2000/svg" viewBox="0 0 326 68.54">
  <defs>
    <style>
      .fcls-1 {
        letter-spacing: 0em;
      }

      .fcls-2 {
        letter-spacing: 0em;
      }

      .fcls-3 {
        letter-spacing: -.06em;
      }

      .fcls-4 {
        font-family: SVN-IntegralCF-Regular, 'SVN-Integral CF';
        font-size: 26.93px;
      }

      .fcls-4, .fcls-5 {
        fill: #fff;
      }

      .fcls-5 {
        stroke-width: 0px;
      }
    </style>
  </defs>
  <text class="fcls-4" transform="translate(0 46.58)"><tspan x="0" y="0">D</tspan><tspan class="fcls-1" x="20.45" y="0">E</tspan><tspan x="38.15" y="0">SIGN </tspan><tspan class="fcls-3" x="111.28" y="0">B</tspan><tspan class="fcls-2" x="129.21" y="0">Y</tspan><tspan x="149.38" y="0"> </tspan></text>
  <g>
    <path class="fcls-5" d="M233.35,1.75c-.64-.25-8.47-.92-8.47-.92,0,0,0,0-.01,0-13.07-1.12-26.16-.99-39.25-.31,0,0,0,0,0,0,0,0,0,0-.02,0-.06,0-.12,0-.19,0,0,0,0,0,0,0-1.57.11-11.18.8-11.23.8,0,0,0,0,0,0-.27.02-.54.04-.81.07-3.81.44-7.63.91-11.44,1.37-.76.11-1.51.26-2.26.41-1.1.26-2.21.52-3.29.85-.51.21-.68.59-.55,1.11.23.37.46.67.81.85h0s0,0,0,0c.21.11.46.17.78.17.9,0,1.81.08,2.72.12.49.02.98.02,1.46.01,1.63.13,3.45.3,5.13.52,1.85.28,3.7.57,5.48,1.19,3.22,1.11,6.08,2.66,7.34,6.12.76,2.14.57,4.32.37,6.49-.14,1.39-.59,4.66-2,9.2-.15.46-.3.93-.47,1.39-2.49,6.99-6.05,13.48-9.48,20.04-2.63,5.02-5.36,10-7.42,15.29-.33.85-.38,1.51.57,1.89.96.38,1.42-.18,1.75-.99.47-1.13.95-2.26,1.46-3.37,3.95-8.64,8.84-16.77,13.52-25.02,5.85-10.3,11.6-20.66,18.14-30.55.46-.69.46-1.3-.19-1.79-.65-.5-1.29-.31-1.79.31-.26.32-.49.65-.72.99-3.84,5.84-7.33,11.9-10.86,17.94-.37.53-.74,1.05-1.07,1.61-.03.08-.07.15-.11.22.07-.4.21-1.63.33-1.87,0,0,0,0,0,0,.63-2.28,1.1-4.59,1.24-6.96.3-4.96-1.31-9.02-5.77-11.63-.03-.02-.07-.04-.1-.05,0,0,0,0,0,0-.61-.34-4.04-2.38-6.41-2.78,0,0,9.39-1.02,10.73-1.15,8.67-.57,17.35-.83,26.04-.74,3.29.04,6.59.09,9.88.22,8.38.54,12.87,1.25,14.11,1.48.09.02.18.04.27.05.02,0,.03,0,.04,0,0,0,0,0,0,0,.48.08.98.1,1.47.15.87.08,1.46-.25,1.56-1.11.1-.91-.47-1.43-1.31-1.62Z"/>
    <path class="fcls-5" d="M325.81,38.49c-.42-.77-1.14-.8-1.9-.43-.33.16-.65.32-.98.48-6.05,2.86-12.17,5.53-18.62,7.36-2.53.66-6.89,1.41-7.43,1.48-.85.07-1.71.1-2.57.06-2.92-.15-3.66-1.23-2.63-3.94.11-.3.28-.57.4-.86.23-.57.57-.58,1.18-.51,4,.48,7.31-.95,9.96-3.89.88-.98,1.34-2.23.7-3.53-.68-1.38-1.94-1.84-3.41-1.78-2.93.11-5.09,1.74-7.08,3.66-.52.51-.99,1.04-1.78,1.17-.19.03-.38.06-.57.09-.29.05-.58.1-.87.14-2.34.39-8.67,1.46-9.75,1.66-.03,0-.06.01-.09.02,0,0-.02,0-.03,0,0,0-.01,0-.02,0-.18.03-.36.06-.53.08-2.29.4-6.33,1.55-8.84,2-1.04.19-1.82.25-2.1.09,0,0,0,0,0,0-.13-.06-.26-.15-.39-.24-1.23-.93-2.65-1.5-4.18-1.75-1.07-.28-2.17-.47-3.21-.85-.24-.09-.48-.16-.72-.23,0,0,0,0,0,0-1.16-.48-.37-1.02.26-1.32,3.05-1.37,6.26-2.1,9.58-2.47.31-.03.68-.12.87.2.26.43-.17.68-.4.9-.46.43-1.01.76-1.48,1.19-.47.43-.72.97-.28,1.57.43.59,1.01.77,1.67.41,1.26-.67,2.37-1.53,3.05-2.82.86-1.64.29-3.3-1.3-3.74-.48-.13-.99-.19-1.49-.17-4.42.13-8.77.96-12.47,3.31-2.12,1.35-4.26,1.78-6.55,2.19-.28.05-.56.11-.84.16h0s-9.6,1.79-9.6,1.79h0c-.44.09-.89.17-1.33.27-1.83.39-3.63.88-5.46,1.28-.86.19-1.51.14-2.26-.42-.69-.52-1.45-.92-2.27-1.19,0,0,0,0,0,0-1.18-.66-4.21-.92-5.97-1.52-.86-.5-.27-.93.43-1.25,3.12-1.29,6.35-2.15,9.71-2.5.34-.04.78-.18.99.21.22.43-.23.66-.46.88-.42.4-.94.71-1.38,1.1-.5.46-.84,1.01-.35,1.67.43.58,1.02.75,1.68.38,1.12-.63,2.14-1.35,2.82-2.49,1.14-1.92.87-2.97-1.11-4.11-.76-.29-1.52-.34-2.29-.26,0,0,0,0,0,0-6.55.69-9.59,2.16-10.6,2.67-.07.04-.15.07-.22.11,0,0-.02,0-.03.01h0c-.5.27-.98.58-1.42.96-1.81,1.57-3.83,2.72-5.89,3.83-4.05,2.19-8.05,4.48-12.43,6,0,0,0,0,0,0-4.82,1.54-4.43-1.13-4.28-1.86.48-2.22,1.51-4.23,2.63-6.2.72-1.27.38-1.94-1.02-2.13-.45.47-.79.08-1.19-.12-.72-.37-1.38-.83-2.2-1.03-2.43-.6-4.66-.08-6.81,1.04-3.38,1.84-5.73,4.57-6.77,8.28-.88,3.14,1.3,5.17,4.46,4.3,2-.55,3.72-1.64,5.37-2.86.96-.71,1.89-1.47,3.01-2.35-.01,1.19-.09,2.13-.02,3.06.15,2.06,1.38,3.2,3.44,3.29,1.11.05,2.16-.26,3.19-.61,4.93-1.68,9.49-4.13,14-6.67h0s.01,0,.01,0c.25-.14.5-.28.76-.43.96-.49,2.66-1.12,4.81-.69,1.73.45,3.5.79,5.19,1.39.25.09.51.15.75.26.25.16.58.44-.12.67-1.31.41-2.62.8-3.91,1.23-2.45.82-4.89,1.68-6.97,3.28-1.46,1.12-1.91,2.34-1.47,3.64.43,1.26,1.64,1.96,3.4,1.98,1.38.02,2.71-.32,3.99-.77,3.9-1.38,7.49-3.23,9.74-6.94.22-.34.24-.79.58-1.07.88-.2,1.76-.4,2.64-.6l11.43-2.34,6.56-1.34c.15,0,1.91-.16,3.11.54,0,0,.01,0,.02,0,.68.37,2.99.98,4.91,1.56,1.22.37,2.28.73,2.65,1.01-2.59.68-4.98,1.41-7.28,2.35-1.89.76-3.8,1.55-5.19,3.14-1.44,1.66-.84,3.87,1.24,4.59,1.35.47,2.69.22,4.02-.12,4.19-1.07,8.09-2.84,10.56-6.47.56-.82,1.13-1.42,1.78-1.86.44-.25,1.32-.55,2.45-.86,5.13-1.41,15.63-3.23,16.16-3.31,0,0,.02,0,.03,0,.36-.08.7-.08.92.24.14.2.07.45-.07.71-.22.38-1.41,1.86-1.32,4.11,0,0,0,.01,0,.02-.03,2,1.13,3.43,3.36,4.03,2.89.78,5.78.3,8.64-.27,5.59-1.12,10.91-3.07,16.14-5.28,2.76-1.16,5.45-2.47,8.17-3.73.81-.37,1.25-1.01.78-1.87ZM294.85,38.84c1.41-1.64,3.07-2.96,5.23-3.46.49-.11,1.07-.14,1.37.34.32.53-.14.97-.47,1.3-1.57,1.55-3.56,2.27-5.3,2.67-1.26.12-1.22-.41-.83-.85ZM197.54,38.23c-2.31,2.18-4.68,4.29-7.3,6.09-.75.51-1.5,1.01-2.38,1.3-1.11.36-1.53.02-1.39-1.67.91-2.96,3.11-5.4,6.32-6.97,1.34-.66,2.77-.85,4.23-.44.42.12.98.3,1.16.62.25.46-.32.77-.64,1.07ZM230,45.8h0s0,0,0,0c-.44.68-2,1.65-3.24,2.35-.37.21-.75.42-1.14.6-.2.1-.35.17-.44.21-.05.02-.11.05-.19.08-.55.24-1.1.45-1.67.64-1.5.53-3.43,1.08-4.09.65-.02-.01-.04-.03-.06-.05-.02-.02-.04-.04-.06-.06,0,0,0,0,0-.01-.06-.08-.09-.17-.1-.29,0-.01,0-.03,0-.04,0,0,0,0,0,0,0,0,0,0,0-.01,0-.12.05-.22.12-.31,1.12-1.76,9.4-5.04,10.75-4.4.29.14.3.36.13.63,0,0,0,0,0,0ZM266.03,45.94c-.02.06-.05.12-.09.19,0,0,0,0,0,0h0s0,0,0,0c-.44.68-2,1.65-3.24,2.35-.28.16-.56.31-.84.45-.1.05-.2.1-.3.15-.2.1-.35.17-.44.21-.05.02-.11.05-.19.08-.55.24-1.1.45-1.67.64-1.5.53-3.43,1.08-4.09.65-.02-.01-.04-.03-.06-.05-.02-.02-.04-.04-.06-.06,0,0,0,0,0-.01-.06-.08-.09-.17-.1-.29,0-.01,0-.03,0-.04,0,0,0,0,0,0,0,0,0,0,0-.01,0-.12.05-.22.12-.31.08-.13.21-.27.37-.42,1.96-1.81,9.13-4.57,10.38-3.98.06.03.1.06.13.09.1.1.13.22.09.35Z"/>
  </g>
</svg>