<?xml version="1.0" encoding="UTF-8"?>
<svg xmlns="http://www.w3.org/2000/svg" xmlns:xlink="http://www.w3.org/1999/xlink" viewBox="0 0 450.82 186.29">
  <defs>
    <style>
      .cls-1 {
        fill: #ababab;
      }

      .cls-1, .cls-2, .cls-3, .cls-4, .cls-5, .cls-6, .cls-7, .cls-8, .cls-9, .cls-10, .cls-11, .cls-12, .cls-13, .cls-14, .cls-15, .cls-16, .cls-17, .cls-18, .cls-19, .cls-20, .cls-21, .cls-22, .cls-23, .cls-24, .cls-25, .cls-26, .cls-27, .cls-28, .cls-29, .cls-30, .cls-31, .cls-32 {
        stroke-width: 0px;
      }

      .cls-2 {
        fill: #737373;
      }

      .cls-3 {
        fill: #999;
      }

      .cls-4 {
        fill: #40d3ca;
      }

      .cls-5 {
        fill: #1a1a1a;
      }

      .cls-6 {
        fill: #ffc14c;
      }

      .cls-7 {
        fill: #37858a;
      }

      .cls-33 {
        isolation: isolate;
      }

      .cls-8 {
        fill: #6f6f6f;
      }

      .cls-9 {
        fill: #97d76e;
      }

      .cls-10 {
        fill: #cacaca;
      }

      .cls-11 {
        fill: #ffa65d;
      }

      .cls-12 {
        fill: url(#radial-gradient);
      }

      .cls-12, .cls-22 {
        mix-blend-mode: multiply;
      }

      .cls-13 {
        fill: #87d964;
      }

      .cls-14 {
        fill: #ff6839;
      }

      .cls-15 {
        fill: #3a7a2d;
      }

      .cls-16 {
        fill: #9d9d9d;
      }

      .cls-17 {
        fill: #f37221;
      }

      .cls-18 {
        fill: #ff9b29;
      }

      .cls-19 {
        fill: #e1e1e1;
      }

      .cls-20 {
        fill: #e2e2e2;
      }

      .cls-21 {
        fill: #b9dae9;
      }

      .cls-22 {
        fill: #000;
        opacity: .24;
      }

      .cls-23 {
        fill: #484848;
      }

      .cls-24 {
        fill: #ff637f;
      }

      .cls-25 {
        fill: #737860;
      }

      .cls-26 {
        fill: #ffb200;
      }

      .cls-27 {
        fill: #ff8500;
      }

      .cls-28 {
        fill: #9ca076;
      }

      .cls-29 {
        fill: #fff;
      }

      .cls-30 {
        fill: #c8b474;
      }

      .cls-31 {
        fill: #51ad40;
      }

      .cls-32 {
        fill: #393939;
      }
    </style>
    <radialGradient id="radial-gradient" cx="-293.69" cy="178.36" fx="-293.69" fy="178.36" r="34.53" gradientTransform="translate(685.62 138.06) rotate(-.26) scale(1.19 .22) skewX(.02)" gradientUnits="userSpaceOnUse">
      <stop offset=".05" stop-color="#000"/>
      <stop offset="1" stop-color="#fff" stop-opacity="0"/>
    </radialGradient>
  </defs>
  <g class="cls-33">
    <g id="Layer_1" data-name="Layer 1">
      <g>
        <g>
          <path class="cls-29" d="M335.8,90.08s-.05,0-.08,0c0,0-.02,0-.02,0-.03,0-.05,0-.08.01-.03,0-.05,0-.08.01-.03,0-.05.01-.08.02-.02,0-.05,0-.07.01h-.01s-.02,0-.02.01c-.04.01-.07.02-.1.03-.02,0-.05.02-.07.03-.02.01-.05.02-.07.03-.02.01-.05.02-.07.04-.02.01-.05.03-.07.04-.02.01-.04.03-.07.04-.02.02-.04.03-.06.05-.02.02-.04.03-.06.05-.02.02-.04.04-.06.05-.02.02-.04.04-.06.06-.02.02-.04.04-.05.06-.02.02-.03.04-.05.06-.02.02-.03.04-.05.06-.02.02-.03.04-.04.07-.01.02-.03.04-.04.07-.01.02-.03.05-.04.07-.01.02-.02.05-.03.07-.01.02-.02.05-.03.07,0,.02-.02.05-.03.07,0,.02-.02.05-.02.08,0,.03-.01.05-.02.08,0,.03-.01.05-.01.08,0,.03,0,.05-.01.08,0,.03,0,.05-.01.08,0,.03,0,.05,0,.08,0,.01,0,.02,0,.03,0,.03,0,.05,0,.08,0,0,0,.02,0,.03,0,.03,0,.05.01.08,0,.03,0,.05.01.08,0,.03.01.05.02.08,0,.02,0,.05.01.07h0s0,.03.01.03c.01.04.02.07.04.1,0,.02.02.05.03.07.01.02.02.05.03.07.01.02.02.05.04.07.01.02.03.05.04.07.01.02.03.04.04.07.01.02.03.04.05.06.02.02.03.04.05.06.02.02.03.04.05.06.02.02.04.04.06.06.02.02.04.04.06.05.02.02.04.03.06.05.02.02.04.03.06.05.02.02.04.03.07.04.02.01.04.03.07.04.02.01.05.02.07.04.02.01.05.02.07.03.02.01.05.02.07.03.02,0,.05.02.08.03.02,0,.05.02.08.02.03,0,.05.01.08.02.03,0,.05.01.08.01.03,0,.05,0,.08.01.03,0,.05,0,.08.01.03,0,.05,0,.08,0,.01,0,.02,0,.03,0,.03,0,.05,0,.08,0,0,0,.02,0,.02,0,.03,0,.05,0,.08-.01.03,0,.05,0,.08-.01.03,0,.05-.01.08-.02.02,0,.05,0,.07-.01h.01s.02,0,.02-.01c.04-.01.07-.02.1-.04.02,0,.05-.02.07-.03.02-.01.05-.02.07-.03.02-.01.05-.02.07-.04.02-.01.05-.03.07-.04.02-.01.04-.03.07-.04.02-.01.04-.03.06-.05.02-.02.04-.03.06-.05.02-.02.04-.03.06-.05.02-.02.04-.04.06-.06.02-.02.04-.04.05-.06.02-.02.03-.04.05-.06.02-.02.03-.04.05-.06.02-.02.03-.04.04-.07.01-.02.03-.04.04-.07.01-.02.03-.05.04-.07.01-.02.02-.05.03-.07.01-.02.02-.05.03-.07,0-.02.02-.05.03-.08,0-.02.01-.05.02-.07,0-.03.01-.05.02-.08,0-.03.01-.05.01-.08,0-.03,0-.05.01-.08,0-.03,0-.05.01-.08,0-.03,0-.05,0-.08v-.03s0-.05,0-.08c0,0,0-.02,0-.02,0-.03,0-.05-.01-.08,0-.03,0-.05-.01-.08,0-.03-.01-.05-.02-.08,0-.02,0-.05-.01-.07h0s0-.03-.01-.03c-.01-.04-.02-.07-.03-.1,0-.02-.02-.05-.03-.07,0-.02-.02-.05-.03-.07-.01-.02-.02-.05-.04-.07-.01-.02-.03-.05-.04-.07-.01-.02-.03-.04-.04-.07-.01-.02-.03-.04-.05-.06-.02-.02-.03-.04-.05-.06-.02-.02-.03-.04-.05-.06-.02-.02-.04-.04-.06-.06-.02-.02-.04-.04-.06-.05-.02-.02-.04-.03-.06-.05-.02-.02-.04-.03-.06-.05-.02-.02-.04-.03-.07-.04-.02-.01-.04-.03-.07-.04-.02-.01-.05-.03-.07-.04-.02-.01-.05-.02-.07-.03-.02-.01-.05-.02-.07-.03-.02,0-.05-.02-.07-.03-.02,0-.05-.02-.08-.02-.03,0-.05-.01-.08-.02-.03,0-.05-.01-.08-.01-.03,0-.05,0-.08-.01-.03,0-.05,0-.08-.01-.03,0-.05,0-.08,0,0,0-.02,0-.03,0h0ZM335.8,90.08"/>
          <path class="cls-29" d="M335.8,90.08s-.05,0-.08,0c0,0-.02,0-.02,0-.03,0-.05,0-.08.01-.03,0-.05,0-.08.01-.03,0-.05.01-.08.02-.02,0-.05,0-.07.01h-.01s-.02,0-.02.01c-.04.01-.07.02-.1.03-.02,0-.05.02-.07.03-.02.01-.05.02-.07.03-.02.01-.05.02-.07.04-.02.01-.05.03-.07.04-.02.01-.04.03-.07.04-.02.02-.04.03-.06.05-.02.02-.04.03-.06.05-.02.02-.04.04-.06.05-.02.02-.04.04-.06.06-.02.02-.04.04-.05.06-.02.02-.03.04-.05.06-.02.02-.03.04-.05.06-.02.02-.03.04-.04.07-.01.02-.03.04-.04.07-.01.02-.03.05-.04.07-.01.02-.02.05-.03.07-.01.02-.02.05-.03.07,0,.02-.02.05-.03.07,0,.02-.02.05-.02.08,0,.03-.01.05-.02.08,0,.03-.01.05-.01.08,0,.03,0,.05-.01.08,0,.03,0,.05-.01.08,0,.03,0,.05,0,.08,0,.01,0,.02,0,.03,0,.03,0,.05,0,.08,0,0,0,.02,0,.03,0,.03,0,.05.01.08,0,.03,0,.05.01.08,0,.03.01.05.02.08,0,.02,0,.05.01.07h0s0,.03.01.03c.01.04.02.07.04.1,0,.02.02.05.03.07.01.02.02.05.03.07.01.02.02.05.04.07.01.02.03.05.04.07.01.02.03.04.04.07.01.02.03.04.05.06.02.02.03.04.05.06.02.02.03.04.05.06.02.02.04.04.06.06.02.02.04.04.06.05.02.02.04.03.06.05.02.02.04.03.06.05.02.02.04.03.07.04.02.01.04.03.07.04.02.01.05.02.07.04.02.01.05.02.07.03.02.01.05.02.07.03.02,0,.05.02.08.03.02,0,.05.02.08.02.03,0,.05.01.08.02.03,0,.05.01.08.02.03,0,.05,0,.08.01.03,0,.05,0,.08.01.03,0,.05,0,.08,0h.03s.05,0,.08,0c0,0,.02,0,.02,0,.03,0,.05,0,.08-.01.03,0,.05,0,.08-.01.03,0,.05-.01.08-.02.02,0,.05,0,.07-.01h.01s.02,0,.02-.01c.04-.01.07-.02.1-.03.02,0,.05-.02.07-.03.02-.01.05-.02.07-.03.02-.01.05-.02.07-.04.02-.01.05-.03.07-.04.02-.01.04-.03.07-.04.02-.02.04-.03.06-.05.02-.02.04-.03.06-.05.02-.02.04-.03.06-.05.02-.02.04-.04.06-.06.02-.02.04-.04.05-.06.02-.02.03-.04.05-.06.02-.02.03-.04.05-.06.02-.02.03-.04.04-.07.01-.02.03-.04.04-.07.01-.02.03-.05.04-.07.01-.02.02-.05.03-.07.01-.02.02-.05.03-.07,0-.02.02-.05.03-.07,0-.02.01-.05.02-.08,0-.03.01-.05.02-.08,0-.03.01-.05.01-.08,0-.03,0-.05.01-.08,0-.03,0-.05.01-.08,0-.03,0-.05,0-.08v-.03s0-.05,0-.08c0,0,0-.02,0-.02,0-.03,0-.05-.01-.08,0-.03,0-.05-.01-.08,0-.03-.01-.05-.02-.08,0-.02,0-.05-.01-.07h0s0-.03-.01-.03c-.01-.04-.02-.07-.03-.1,0-.02-.02-.05-.03-.07,0-.02-.02-.05-.03-.07-.01-.02-.02-.05-.04-.07-.01-.02-.03-.05-.04-.07-.01-.02-.03-.04-.04-.07-.01-.02-.03-.04-.05-.06-.02-.02-.03-.04-.05-.06-.02-.02-.03-.04-.05-.06-.02-.02-.04-.04-.06-.06-.02-.02-.04-.04-.06-.05-.02-.02-.04-.03-.06-.05-.02-.02-.04-.03-.06-.05-.02-.02-.04-.03-.07-.04-.02-.01-.04-.03-.07-.04-.02-.01-.05-.02-.07-.04-.02-.01-.05-.02-.07-.03-.02-.01-.05-.02-.07-.03-.02,0-.05-.02-.07-.03-.02,0-.05-.02-.08-.02-.03,0-.05-.01-.08-.02-.03,0-.05-.01-.08-.01-.03,0-.05,0-.08-.01-.03,0-.05,0-.08-.01-.03,0-.05,0-.08,0h-.03ZM335.8,90.08"/>
          <path class="cls-29" d="M335.8,90.08s-.05,0-.08,0c0,0-.02,0-.02,0-.03,0-.05,0-.08.01-.03,0-.05,0-.08.01-.03,0-.05.01-.08.02-.02,0-.05,0-.07.01h-.01s-.02,0-.02.01c-.04.01-.07.02-.1.03-.02,0-.05.02-.07.03-.02.01-.05.02-.07.03-.02.01-.05.02-.07.04-.02.01-.05.03-.07.04-.02.01-.04.03-.07.04-.02.02-.04.03-.06.05-.02.02-.04.03-.06.05-.02.02-.04.04-.06.05-.02.02-.04.04-.06.06-.02.02-.04.04-.05.06-.02.02-.03.04-.05.06-.02.02-.03.04-.05.06-.02.02-.03.04-.04.07-.01.02-.03.04-.04.07-.01.02-.03.05-.04.07-.01.02-.02.05-.03.07-.01.02-.02.05-.03.07,0,.02-.02.05-.03.07,0,.02-.02.05-.02.08,0,.03-.01.05-.02.08,0,.03-.01.05-.01.08,0,.03,0,.05-.01.08,0,.03,0,.05-.01.08,0,.03,0,.05,0,.08,0,.01,0,.02,0,.03,0,.03,0,.05,0,.08,0,0,0,.02,0,.03,0,.03,0,.05.01.08,0,.03,0,.05.01.08,0,.03.01.05.02.08,0,.02,0,.05.01.07h0s0,.03.01.03c.01.04.02.07.04.1,0,.02.02.05.03.07.01.02.02.05.03.07.01.02.02.05.04.07.01.02.03.05.04.07.01.02.03.04.04.07.01.02.03.04.05.06.02.02.03.04.05.06.02.02.03.04.05.06.02.02.04.04.06.06.02.02.04.04.06.05.02.02.04.03.06.05.02.02.04.03.06.05.02.02.04.03.07.04.02.01.04.03.07.04.02.01.05.02.07.04.02.01.05.02.07.03.02.01.05.02.07.03.02,0,.05.02.08.03.02,0,.05.02.08.02.03,0,.05.01.08.02.03,0,.05.01.08.02.03,0,.05,0,.08.01.03,0,.05,0,.08.01.03,0,.05,0,.08,0h.03s.05,0,.08,0c0,0,.02,0,.02,0,.03,0,.05,0,.08-.01.03,0,.05,0,.08-.01.03,0,.05-.01.08-.02.02,0,.05,0,.07-.01h.01s.02,0,.02-.01c.04-.01.07-.02.1-.03.02,0,.05-.02.07-.03.02-.01.05-.02.07-.03.02-.01.05-.02.07-.04.02-.01.05-.03.07-.04.02-.01.04-.03.07-.04.02-.02.04-.03.06-.05.02-.02.04-.03.06-.05.02-.02.04-.03.06-.05.02-.02.04-.04.06-.06.02-.02.04-.04.05-.06.02-.02.03-.04.05-.06.02-.02.03-.04.05-.06.02-.02.03-.04.04-.07.01-.02.03-.04.04-.07.01-.02.03-.05.04-.07.01-.02.02-.05.03-.07.01-.02.02-.05.03-.07,0-.02.02-.05.03-.07,0-.02.01-.05.02-.08,0-.03.01-.05.02-.08,0-.03.01-.05.01-.08,0-.03,0-.05.01-.08,0-.03,0-.05.01-.08,0-.03,0-.05,0-.08v-.03s0-.05,0-.08c0,0,0-.02,0-.02,0-.03,0-.05-.01-.08,0-.03,0-.05-.01-.08,0-.03-.01-.05-.02-.08,0-.02,0-.05-.01-.07h0s0-.03-.01-.03c-.01-.04-.02-.07-.03-.1,0-.02-.02-.05-.03-.07,0-.02-.02-.05-.03-.07-.01-.02-.02-.05-.04-.07-.01-.02-.03-.05-.04-.07-.01-.02-.03-.04-.04-.07-.01-.02-.03-.04-.05-.06-.02-.02-.03-.04-.05-.06-.02-.02-.03-.04-.05-.06-.02-.02-.04-.04-.06-.06-.02-.02-.04-.04-.06-.05-.02-.02-.04-.03-.06-.05-.02-.02-.04-.03-.06-.05-.02-.02-.04-.03-.07-.04-.02-.01-.04-.03-.07-.04-.02-.01-.05-.02-.07-.04-.02-.01-.05-.02-.07-.03-.02-.01-.05-.02-.07-.03-.02,0-.05-.02-.07-.03-.02,0-.05-.02-.08-.02-.03,0-.05-.01-.08-.02-.03,0-.05-.01-.08-.01-.03,0-.05,0-.08-.01-.03,0-.05,0-.08-.01-.03,0-.05,0-.08,0h-.03ZM335.8,90.08"/>
          <path class="cls-29" d="M335.8,90.08s-.05,0-.08,0c0,0-.02,0-.02,0-.03,0-.05,0-.08.01-.03,0-.05,0-.08.01-.03,0-.05.01-.08.02-.02,0-.05,0-.07.01h-.01s-.02,0-.02.01c-.04.01-.07.02-.1.03-.02,0-.05.02-.07.03-.02.01-.05.02-.07.03-.02.01-.05.02-.07.04-.02.01-.05.03-.07.04-.02.01-.04.03-.07.04-.02.02-.04.03-.06.05-.02.02-.04.03-.06.05-.02.02-.04.04-.06.05-.02.02-.04.04-.06.06-.02.02-.04.04-.05.06-.02.02-.03.04-.05.06-.02.02-.03.04-.05.06-.02.02-.03.04-.04.07-.01.02-.03.04-.04.07-.01.02-.03.05-.04.07-.01.02-.02.05-.03.07-.01.02-.02.05-.03.07,0,.02-.02.05-.03.07,0,.02-.02.05-.02.08,0,.03-.01.05-.02.08,0,.03-.01.05-.01.08,0,.03,0,.05-.01.08,0,.03,0,.05-.01.08,0,.03,0,.05,0,.08,0,.01,0,.02,0,.03,0,.03,0,.05,0,.08,0,0,0,.02,0,.03,0,.03,0,.05.01.08,0,.03,0,.05.01.08,0,.03.01.05.02.08,0,.02,0,.05.01.07h0s0,.03.01.03c.01.04.02.07.04.1,0,.02.02.05.03.07.01.02.02.05.03.07.01.02.02.05.04.07.01.02.03.05.04.07.01.02.03.04.04.07.01.02.03.04.05.06.02.02.03.04.05.06.02.02.03.04.05.06.02.02.04.04.06.06.02.02.04.04.06.05.02.02.04.03.06.05.02.02.04.03.06.05.02.02.04.03.07.04.02.01.04.03.07.04.02.01.05.02.07.04.02.01.05.02.07.03.02.01.05.02.07.03.02,0,.05.02.08.03.02,0,.05.02.08.02.03,0,.05.01.08.02.03,0,.05.01.08.02.03,0,.05,0,.08.01.03,0,.05,0,.08.01.03,0,.05,0,.08,0h.03s.05,0,.08,0c0,0,.02,0,.02,0,.03,0,.05,0,.08-.01.03,0,.05,0,.08-.01.03,0,.05-.01.08-.02.02,0,.05,0,.07-.01h.01s.02,0,.02-.01c.04-.01.07-.02.1-.03.02,0,.05-.02.07-.03.02-.01.05-.02.07-.03.02-.01.05-.02.07-.04.02-.01.05-.03.07-.04.02-.01.04-.03.07-.04.02-.02.04-.03.06-.05.02-.02.04-.03.06-.05.02-.02.04-.03.06-.05.02-.02.04-.04.06-.06.02-.02.04-.04.05-.06.02-.02.03-.04.05-.06.02-.02.03-.04.05-.06.02-.02.03-.04.04-.07.01-.02.03-.04.04-.07.01-.02.03-.05.04-.07.01-.02.02-.05.03-.07.01-.02.02-.05.03-.07,0-.02.02-.05.03-.07,0-.02.01-.05.02-.08,0-.03.01-.05.02-.08,0-.03.01-.05.01-.08,0-.03,0-.05.01-.08,0-.03,0-.05.01-.08,0-.03,0-.05,0-.08v-.03s0-.05,0-.08c0,0,0-.02,0-.02,0-.03,0-.05-.01-.08,0-.03,0-.05-.01-.08,0-.03-.01-.05-.02-.08,0-.02,0-.05-.01-.07h0s0-.03-.01-.03c-.01-.04-.02-.07-.03-.1,0-.02-.02-.05-.03-.07,0-.02-.02-.05-.03-.07-.01-.02-.02-.05-.04-.07-.01-.02-.03-.05-.04-.07-.01-.02-.03-.04-.04-.07-.01-.02-.03-.04-.05-.06-.02-.02-.03-.04-.05-.06-.02-.02-.03-.04-.05-.06-.02-.02-.04-.04-.06-.06-.02-.02-.04-.04-.06-.05-.02-.02-.04-.03-.06-.05-.02-.02-.04-.03-.06-.05-.02-.02-.04-.03-.07-.04-.02-.01-.04-.03-.07-.04-.02-.01-.05-.02-.07-.04-.02-.01-.05-.02-.07-.03-.02-.01-.05-.02-.07-.03-.02,0-.05-.02-.07-.03-.02,0-.05-.02-.08-.02-.03,0-.05-.01-.08-.02-.03,0-.05-.01-.08-.01-.03,0-.05,0-.08-.01-.03,0-.05,0-.08-.01-.03,0-.05,0-.08,0h-.03ZM335.8,90.08"/>
          <path class="cls-29" d="M335.8,90.08s-.05,0-.08,0c0,0-.02,0-.02,0-.03,0-.05,0-.08.01-.03,0-.05,0-.08.01-.03,0-.05.01-.08.02-.02,0-.05,0-.07.01h-.01s-.02,0-.02.01c-.04.01-.07.02-.1.03-.02,0-.05.02-.07.03-.02.01-.05.02-.07.03-.02.01-.05.02-.07.04-.02.01-.05.03-.07.04-.02.01-.04.03-.07.04-.02.02-.04.03-.06.05-.02.02-.04.03-.06.05-.02.02-.04.04-.06.05-.02.02-.04.04-.06.06-.02.02-.04.04-.05.06-.02.02-.03.04-.05.06-.02.02-.03.04-.05.06-.02.02-.03.04-.04.07-.01.02-.03.04-.04.07-.01.02-.03.05-.04.07-.01.02-.02.05-.03.07-.01.02-.02.05-.03.07,0,.02-.02.05-.03.07,0,.02-.02.05-.02.08,0,.03-.01.05-.02.08,0,.03-.01.05-.01.08,0,.03,0,.05-.01.08,0,.03,0,.05-.01.08,0,.03,0,.05,0,.08,0,.01,0,.02,0,.03,0,.03,0,.05,0,.08,0,0,0,.02,0,.03,0,.03,0,.05.01.08,0,.03,0,.05.01.08,0,.03.01.05.02.08,0,.02,0,.05.01.07h0s0,.03.01.03c.01.04.02.07.04.1,0,.02.02.05.03.07.01.02.02.05.03.07.01.02.02.05.04.07.01.02.03.05.04.07.01.02.03.04.04.07.01.02.03.04.05.06.02.02.03.04.05.06.02.02.03.04.05.06.02.02.04.04.06.06.02.02.04.04.06.05.02.02.04.03.06.05.02.02.04.03.06.05.02.02.04.03.07.04.02.01.04.03.07.04.02.01.05.02.07.04.02.01.05.02.07.03.02.01.05.02.07.03.02,0,.05.02.08.03.02,0,.05.02.08.02.03,0,.05.01.08.02.03,0,.05.01.08.02.03,0,.05,0,.08.01.03,0,.05,0,.08.01.03,0,.05,0,.08,0h.03s.05,0,.08,0c0,0,.02,0,.02,0,.03,0,.05,0,.08-.01.03,0,.05,0,.08-.01.03,0,.05-.01.08-.02.02,0,.05,0,.07-.01h.01s.02,0,.02-.01c.04-.01.07-.02.1-.03.02,0,.05-.02.07-.03.02-.01.05-.02.07-.03.02-.01.05-.02.07-.04.02-.01.05-.03.07-.04.02-.01.04-.03.07-.04.02-.02.04-.03.06-.05.02-.02.04-.03.06-.05.02-.02.04-.03.06-.05.02-.02.04-.04.06-.06.02-.02.04-.04.05-.06.02-.02.03-.04.05-.06.02-.02.03-.04.05-.06.02-.02.03-.04.04-.07.01-.02.03-.04.04-.07.01-.02.03-.05.04-.07.01-.02.02-.05.03-.07.01-.02.02-.05.03-.07,0-.02.02-.05.03-.07,0-.02.01-.05.02-.08,0-.03.01-.05.02-.08,0-.03.01-.05.01-.08,0-.03,0-.05.01-.08,0-.03,0-.05.01-.08,0-.03,0-.05,0-.08v-.03s0-.05,0-.08c0,0,0-.02,0-.02,0-.03,0-.05-.01-.08,0-.03,0-.05-.01-.08,0-.03-.01-.05-.02-.08,0-.02,0-.05-.01-.07h0s0-.03-.01-.03c-.01-.04-.02-.07-.03-.1,0-.02-.02-.05-.03-.07,0-.02-.02-.05-.03-.07-.01-.02-.02-.05-.04-.07-.01-.02-.03-.05-.04-.07-.01-.02-.03-.04-.04-.07-.01-.02-.03-.04-.05-.06-.02-.02-.03-.04-.05-.06-.02-.02-.03-.04-.05-.06-.02-.02-.04-.04-.06-.06-.02-.02-.04-.04-.06-.05-.02-.02-.04-.03-.06-.05-.02-.02-.04-.03-.06-.05-.02-.02-.04-.03-.07-.04-.02-.01-.04-.03-.07-.04-.02-.01-.05-.02-.07-.04-.02-.01-.05-.02-.07-.03-.02-.01-.05-.02-.07-.03-.02,0-.05-.02-.07-.03-.02,0-.05-.02-.08-.02-.03,0-.05-.01-.08-.02-.03,0-.05-.01-.08-.01-.03,0-.05,0-.08-.01-.03,0-.05,0-.08-.01-.03,0-.05,0-.08,0h-.03ZM335.8,90.08"/>
          <path class="cls-29" d="M335.8,90.08s-.05,0-.08,0c0,0-.02,0-.02,0-.03,0-.05,0-.08.01-.03,0-.05,0-.08.01-.03,0-.05.01-.08.02-.02,0-.05,0-.07.01h-.01s-.02,0-.02.01c-.04.01-.07.02-.1.03-.02,0-.05.02-.07.03-.02.01-.05.02-.07.03-.02.01-.05.02-.07.04-.02.01-.05.03-.07.04-.02.01-.04.03-.07.04-.02.02-.04.03-.06.05-.02.02-.04.03-.06.05-.02.02-.04.04-.06.05-.02.02-.04.04-.06.06-.02.02-.04.04-.05.06-.02.02-.03.04-.05.06-.02.02-.03.04-.05.06-.02.02-.03.04-.04.07-.01.02-.03.04-.04.07-.01.02-.03.05-.04.07-.01.02-.02.05-.03.07-.01.02-.02.05-.03.07,0,.02-.02.05-.03.07,0,.02-.02.05-.02.08,0,.03-.01.05-.02.08,0,.03-.01.05-.01.08,0,.03,0,.05-.01.08,0,.03,0,.05-.01.08,0,.03,0,.05,0,.08,0,.01,0,.02,0,.03,0,.03,0,.05,0,.08,0,0,0,.02,0,.03,0,.03,0,.05.01.08,0,.03,0,.05.01.08,0,.03.01.05.02.08,0,.02,0,.05.01.07h0s0,.03.01.03c.01.04.02.07.04.1,0,.02.02.05.03.07.01.02.02.05.03.07.01.02.02.05.04.07.01.02.03.05.04.07.01.02.03.04.04.07.01.02.03.04.05.06.02.02.03.04.05.06.02.02.03.04.05.06.02.02.04.04.06.06.02.02.04.04.06.05.02.02.04.03.06.05.02.02.04.03.06.05.02.02.04.03.07.04.02.01.04.03.07.04.02.01.05.02.07.04.02.01.05.02.07.03.02.01.05.02.07.03.02,0,.05.02.08.03.02,0,.05.02.08.02.03,0,.05.01.08.02.03,0,.05.01.08.02.03,0,.05,0,.08.01.03,0,.05,0,.08.01.03,0,.05,0,.08,0h.03s.05,0,.08,0c0,0,.02,0,.02,0,.03,0,.05,0,.08-.01.03,0,.05,0,.08-.01.03,0,.05-.01.08-.02.02,0,.05,0,.07-.01h.01s.02,0,.02-.01c.04-.01.07-.02.1-.03.02,0,.05-.02.07-.03.02-.01.05-.02.07-.03.02-.01.05-.02.07-.04.02-.01.05-.03.07-.04.02-.01.04-.03.07-.04.02-.02.04-.03.06-.05.02-.02.04-.03.06-.05.02-.02.04-.03.06-.05.02-.02.04-.04.06-.06.02-.02.04-.04.05-.06.02-.02.03-.04.05-.06.02-.02.03-.04.05-.06.02-.02.03-.04.04-.07.01-.02.03-.04.04-.07.01-.02.03-.05.04-.07.01-.02.02-.05.03-.07.01-.02.02-.05.03-.07,0-.02.02-.05.03-.07,0-.02.01-.05.02-.08,0-.03.01-.05.02-.08,0-.03.01-.05.01-.08,0-.03,0-.05.01-.08,0-.03,0-.05.01-.08,0-.03,0-.05,0-.08v-.03s0-.05,0-.08c0,0,0-.02,0-.02,0-.03,0-.05-.01-.08,0-.03,0-.05-.01-.08,0-.03-.01-.05-.02-.08,0-.02,0-.05-.01-.07h0s0-.03-.01-.03c-.01-.04-.02-.07-.03-.1,0-.02-.02-.05-.03-.07,0-.02-.02-.05-.03-.07-.01-.02-.02-.05-.04-.07-.01-.02-.03-.05-.04-.07-.01-.02-.03-.04-.04-.07-.01-.02-.03-.04-.05-.06-.02-.02-.03-.04-.05-.06-.02-.02-.03-.04-.05-.06-.02-.02-.04-.04-.06-.06-.02-.02-.04-.04-.06-.05-.02-.02-.04-.03-.06-.05-.02-.02-.04-.03-.06-.05-.02-.02-.04-.03-.07-.04-.02-.01-.04-.03-.07-.04-.02-.01-.05-.02-.07-.04-.02-.01-.05-.02-.07-.03-.02-.01-.05-.02-.07-.03-.02,0-.05-.02-.07-.03-.02,0-.05-.02-.08-.02-.03,0-.05-.01-.08-.02-.03,0-.05-.01-.08-.01-.03,0-.05,0-.08-.01-.03,0-.05,0-.08-.01-.03,0-.05,0-.08,0h-.03ZM335.8,90.08"/>
          <path class="cls-29" d="M335.8,90.08s-.05,0-.08,0c0,0-.02,0-.02,0-.03,0-.05,0-.08.01-.03,0-.05,0-.08.01-.03,0-.05.01-.08.02-.02,0-.05,0-.07.01h-.01s-.02,0-.02.01c-.04.01-.07.02-.1.03-.02,0-.05.02-.07.03-.02.01-.05.02-.07.03-.02.01-.05.02-.07.04-.02.01-.05.03-.07.04-.02.01-.04.03-.07.04-.02.02-.04.03-.06.05-.02.02-.04.03-.06.05-.02.02-.04.04-.06.05-.02.02-.04.04-.06.06-.02.02-.04.04-.05.06-.02.02-.03.04-.05.06-.02.02-.03.04-.05.06-.02.02-.03.04-.04.07-.01.02-.03.04-.04.07-.01.02-.03.05-.04.07-.01.02-.02.05-.03.07-.01.02-.02.05-.03.07,0,.02-.02.05-.03.07,0,.02-.02.05-.02.08,0,.03-.01.05-.02.08,0,.03-.01.05-.01.08,0,.03,0,.05-.01.08,0,.03,0,.05-.01.08,0,.03,0,.05,0,.08,0,.01,0,.02,0,.03,0,.03,0,.05,0,.08,0,0,0,.02,0,.03,0,.03,0,.05.01.08,0,.03,0,.05.01.08,0,.03.01.05.02.08,0,.02,0,.05.01.07h0s0,.03.01.03c.01.04.02.07.04.1,0,.02.02.05.03.07.01.02.02.05.03.07.01.02.02.05.04.07.01.02.03.05.04.07.01.02.03.04.04.07.01.02.03.04.05.06.02.02.03.04.05.06.02.02.03.04.05.06.02.02.04.04.06.06.02.02.04.04.06.05.02.02.04.03.06.05.02.02.04.03.06.05.02.02.04.03.07.04.02.01.04.03.07.04.02.01.05.02.07.04.02.01.05.02.07.03.02.01.05.02.07.03.02,0,.05.02.08.03.02,0,.05.02.08.02.03,0,.05.01.08.02.03,0,.05.01.08.02.03,0,.05,0,.08.01.03,0,.05,0,.08.01.03,0,.05,0,.08,0h.03s.05,0,.08,0c0,0,.02,0,.02,0,.03,0,.05,0,.08-.01.03,0,.05,0,.08-.01.03,0,.05-.01.08-.02.02,0,.05,0,.07-.01h.01s.02,0,.02-.01c.04-.01.07-.02.1-.03.02,0,.05-.02.07-.03.02-.01.05-.02.07-.03.02-.01.05-.02.07-.04.02-.01.05-.03.07-.04.02-.01.04-.03.07-.04.02-.02.04-.03.06-.05.02-.02.04-.03.06-.05.02-.02.04-.03.06-.05.02-.02.04-.04.06-.06.02-.02.04-.04.05-.06.02-.02.03-.04.05-.06.02-.02.03-.04.05-.06.02-.02.03-.04.04-.07.01-.02.03-.04.04-.07.01-.02.03-.05.04-.07.01-.02.02-.05.03-.07.01-.02.02-.05.03-.07,0-.02.02-.05.03-.07,0-.02.01-.05.02-.08,0-.03.01-.05.02-.08,0-.03.01-.05.01-.08,0-.03,0-.05.01-.08,0-.03,0-.05.01-.08,0-.03,0-.05,0-.08v-.03s0-.05,0-.08c0,0,0-.02,0-.02,0-.03,0-.05-.01-.08,0-.03,0-.05-.01-.08,0-.03-.01-.05-.02-.08,0-.02,0-.05-.01-.07h0s0-.03-.01-.03c-.01-.04-.02-.07-.03-.1,0-.02-.02-.05-.03-.07,0-.02-.02-.05-.03-.07-.01-.02-.02-.05-.04-.07-.01-.02-.03-.05-.04-.07-.01-.02-.03-.04-.04-.07-.01-.02-.03-.04-.05-.06-.02-.02-.03-.04-.05-.06-.02-.02-.03-.04-.05-.06-.02-.02-.04-.04-.06-.06-.02-.02-.04-.04-.06-.05-.02-.02-.04-.03-.06-.05-.02-.02-.04-.03-.06-.05-.02-.02-.04-.03-.07-.04-.02-.01-.04-.03-.07-.04-.02-.01-.05-.02-.07-.04-.02-.01-.05-.02-.07-.03-.02-.01-.05-.02-.07-.03-.02,0-.05-.02-.07-.03-.02,0-.05-.02-.08-.02-.03,0-.05-.01-.08-.02-.03,0-.05-.01-.08-.01-.03,0-.05,0-.08-.01-.03,0-.05,0-.08-.01-.03,0-.05,0-.08,0h-.03ZM335.8,90.08"/>
          <path class="cls-29" d="M335.8,90.08s-.05,0-.08,0c0,0-.02,0-.02,0-.03,0-.05,0-.08.01-.03,0-.05,0-.08.01-.03,0-.05.01-.08.02-.02,0-.05,0-.07.01h-.01s-.02,0-.02.01c-.04.01-.07.02-.1.03-.02,0-.05.02-.07.03-.02.01-.05.02-.07.03-.02.01-.05.02-.07.04-.02.01-.05.03-.07.04-.02.01-.04.03-.07.04-.02.02-.04.03-.06.05-.02.02-.04.03-.06.05-.02.02-.04.04-.06.05-.02.02-.04.04-.06.06-.02.02-.04.04-.05.06-.02.02-.03.04-.05.06-.02.02-.03.04-.05.06-.02.02-.03.04-.04.07-.01.02-.03.04-.04.07-.01.02-.03.05-.04.07-.01.02-.02.05-.03.07-.01.02-.02.05-.03.07,0,.02-.02.05-.03.07,0,.02-.02.05-.02.08,0,.03-.01.05-.02.08,0,.03-.01.05-.01.08,0,.03,0,.05-.01.08,0,.03,0,.05-.01.08,0,.03,0,.05,0,.08,0,.01,0,.02,0,.03,0,.03,0,.05,0,.08,0,0,0,.02,0,.03,0,.03,0,.05.01.08,0,.03,0,.05.01.08,0,.03.01.05.02.08,0,.02,0,.05.01.07h0s0,.03.01.03c.01.04.02.07.04.1,0,.02.02.05.03.07.01.02.02.05.03.07.01.02.02.05.04.07.01.02.03.05.04.07.01.02.03.04.04.07.01.02.03.04.05.06.02.02.03.04.05.06.02.02.03.04.05.06.02.02.04.04.06.06.02.02.04.04.06.05.02.02.04.03.06.05.02.02.04.03.06.05.02.02.04.03.07.04.02.01.04.03.07.04.02.01.05.02.07.04.02.01.05.02.07.03.02.01.05.02.07.03.02,0,.05.02.08.03.02,0,.05.02.08.02.03,0,.05.01.08.02.03,0,.05.01.08.02.03,0,.05,0,.08.01.03,0,.05,0,.08.01.03,0,.05,0,.08,0h.03s.05,0,.08,0c0,0,.02,0,.02,0,.03,0,.05,0,.08-.01.03,0,.05,0,.08-.01.03,0,.05-.01.08-.02.02,0,.05,0,.07-.01h.01s.02,0,.02-.01c.04-.01.07-.02.1-.03.02,0,.05-.02.07-.03.02-.01.05-.02.07-.03.02-.01.05-.02.07-.04.02-.01.05-.03.07-.04.02-.01.04-.03.07-.04.02-.02.04-.03.06-.05.02-.02.04-.03.06-.05.02-.02.04-.03.06-.05.02-.02.04-.04.06-.06.02-.02.04-.04.05-.06.02-.02.03-.04.05-.06.02-.02.03-.04.05-.06.02-.02.03-.04.04-.07.01-.02.03-.04.04-.07.01-.02.03-.05.04-.07.01-.02.02-.05.03-.07.01-.02.02-.05.03-.07,0-.02.02-.05.03-.07,0-.02.01-.05.02-.08,0-.03.01-.05.02-.08,0-.03.01-.05.01-.08,0-.03,0-.05.01-.08,0-.03,0-.05.01-.08,0-.03,0-.05,0-.08v-.03s0-.05,0-.08c0,0,0-.02,0-.02,0-.03,0-.05-.01-.08,0-.03,0-.05-.01-.08,0-.03-.01-.05-.02-.08,0-.02,0-.05-.01-.07h0s0-.03-.01-.03c-.01-.04-.02-.07-.03-.1,0-.02-.02-.05-.03-.07,0-.02-.02-.05-.03-.07-.01-.02-.02-.05-.04-.07-.01-.02-.03-.05-.04-.07-.01-.02-.03-.04-.04-.07-.01-.02-.03-.04-.05-.06-.02-.02-.03-.04-.05-.06-.02-.02-.03-.04-.05-.06-.02-.02-.04-.04-.06-.06-.02-.02-.04-.04-.06-.05-.02-.02-.04-.03-.06-.05-.02-.02-.04-.03-.06-.05-.02-.02-.04-.03-.07-.04-.02-.01-.04-.03-.07-.04-.02-.01-.05-.02-.07-.04-.02-.01-.05-.02-.07-.03-.02-.01-.05-.02-.07-.03-.02,0-.05-.02-.07-.03-.02,0-.05-.02-.08-.02-.03,0-.05-.01-.08-.02-.03,0-.05-.01-.08-.01-.03,0-.05,0-.08-.01-.03,0-.05,0-.08-.01-.03,0-.05,0-.08,0h-.03ZM335.8,90.08"/>
          <path class="cls-29" d="M335.8,90.08s-.05,0-.08,0c0,0-.02,0-.02,0-.03,0-.05,0-.08.01-.03,0-.05,0-.08.01-.03,0-.05.01-.08.02-.02,0-.05,0-.07.01h-.01s-.02,0-.02.01c-.04.01-.07.02-.1.03-.02,0-.05.02-.07.03-.02.01-.05.02-.07.03-.02.01-.05.02-.07.04-.02.01-.05.03-.07.04-.02.01-.04.03-.07.04-.02.02-.04.03-.06.05-.02.02-.04.03-.06.05-.02.02-.04.04-.06.05-.02.02-.04.04-.06.06-.02.02-.04.04-.05.06-.02.02-.03.04-.05.06-.02.02-.03.04-.05.06-.02.02-.03.04-.04.07-.01.02-.03.04-.04.07-.01.02-.03.05-.04.07-.01.02-.02.05-.03.07-.01.02-.02.05-.03.07,0,.02-.02.05-.03.07,0,.02-.02.05-.02.08,0,.03-.01.05-.02.08,0,.03-.01.05-.01.08,0,.03,0,.05-.01.08,0,.03,0,.05-.01.08,0,.03,0,.05,0,.08,0,.01,0,.02,0,.03,0,.03,0,.05,0,.08,0,0,0,.02,0,.03,0,.03,0,.05.01.08,0,.03,0,.05.01.08,0,.03.01.05.02.08,0,.02,0,.05.01.07h0s0,.03.01.03c.01.04.02.07.04.1,0,.02.02.05.03.07.01.02.02.05.03.07.01.02.02.05.04.07.01.02.03.05.04.07.01.02.03.04.04.07.01.02.03.04.05.06.02.02.03.04.05.06.02.02.03.04.05.06.02.02.04.04.06.06.02.02.04.04.06.05.02.02.04.03.06.05.02.02.04.03.06.05.02.02.04.03.07.04.02.01.04.03.07.04.02.01.05.02.07.04.02.01.05.02.07.03.02.01.05.02.07.03.02,0,.05.02.08.03.02,0,.05.02.08.02.03,0,.05.01.08.02.03,0,.05.01.08.02.03,0,.05,0,.08.01.03,0,.05,0,.08.01.03,0,.05,0,.08,0h.03s.05,0,.08,0c0,0,.02,0,.02,0,.03,0,.05,0,.08-.01.03,0,.05,0,.08-.01.03,0,.05-.01.08-.02.02,0,.05,0,.07-.01h.01s.02,0,.02-.01c.04-.01.07-.02.1-.03.02,0,.05-.02.07-.03.02-.01.05-.02.07-.03.02-.01.05-.02.07-.04.02-.01.05-.03.07-.04.02-.01.04-.03.07-.04.02-.02.04-.03.06-.05.02-.02.04-.03.06-.05.02-.02.04-.03.06-.05.02-.02.04-.04.06-.06.02-.02.04-.04.05-.06.02-.02.03-.04.05-.06.02-.02.03-.04.05-.06.02-.02.03-.04.04-.07.01-.02.03-.04.04-.07.01-.02.03-.05.04-.07.01-.02.02-.05.03-.07.01-.02.02-.05.03-.07,0-.02.02-.05.03-.07,0-.02.01-.05.02-.08,0-.03.01-.05.02-.08,0-.03.01-.05.01-.08,0-.03,0-.05.01-.08,0-.03,0-.05.01-.08,0-.03,0-.05,0-.08v-.03s0-.05,0-.08c0,0,0-.02,0-.02,0-.03,0-.05-.01-.08,0-.03,0-.05-.01-.08,0-.03-.01-.05-.02-.08,0-.02,0-.05-.01-.07h0s0-.03-.01-.03c-.01-.04-.02-.07-.03-.1,0-.02-.02-.05-.03-.07,0-.02-.02-.05-.03-.07-.01-.02-.02-.05-.04-.07-.01-.02-.03-.05-.04-.07-.01-.02-.03-.04-.04-.07-.01-.02-.03-.04-.05-.06-.02-.02-.03-.04-.05-.06-.02-.02-.03-.04-.05-.06-.02-.02-.04-.04-.06-.06-.02-.02-.04-.04-.06-.05-.02-.02-.04-.03-.06-.05-.02-.02-.04-.03-.06-.05-.02-.02-.04-.03-.07-.04-.02-.01-.04-.03-.07-.04-.02-.01-.05-.02-.07-.04-.02-.01-.05-.02-.07-.03-.02-.01-.05-.02-.07-.03-.02,0-.05-.02-.07-.03-.02,0-.05-.02-.08-.02-.03,0-.05-.01-.08-.02-.03,0-.05-.01-.08-.01-.03,0-.05,0-.08-.01-.03,0-.05,0-.08-.01-.03,0-.05,0-.08,0h-.03ZM335.8,90.08"/>
          <path class="cls-29" d="M335.8,90.08s-.05,0-.08,0c0,0-.02,0-.02,0-.03,0-.05,0-.08.01-.03,0-.05,0-.08.01-.03,0-.05.01-.08.02-.02,0-.05,0-.07.01h-.01s-.02,0-.02.01c-.04.01-.07.02-.1.03-.02,0-.05.02-.07.03-.02.01-.05.02-.07.03-.02.01-.05.02-.07.04-.02.01-.05.03-.07.04-.02.01-.04.03-.07.04-.02.02-.04.03-.06.05-.02.02-.04.03-.06.05-.02.02-.04.04-.06.05-.02.02-.04.04-.06.06-.02.02-.04.04-.05.06-.02.02-.03.04-.05.06-.02.02-.03.04-.05.06-.02.02-.03.04-.04.07-.01.02-.03.04-.04.07-.01.02-.03.05-.04.07-.01.02-.02.05-.03.07-.01.02-.02.05-.03.07,0,.02-.02.05-.03.07,0,.02-.02.05-.02.08,0,.03-.01.05-.02.08,0,.03-.01.05-.01.08,0,.03,0,.05-.01.08,0,.03,0,.05-.01.08,0,.03,0,.05,0,.08,0,.01,0,.02,0,.03,0,.03,0,.05,0,.08,0,0,0,.02,0,.03,0,.03,0,.05.01.08,0,.03,0,.05.01.08,0,.03.01.05.02.08,0,.02,0,.05.01.07h0s0,.03.01.03c.01.04.02.07.04.1,0,.02.02.05.03.07.01.02.02.05.03.07.01.02.02.05.04.07.01.02.03.05.04.07.01.02.03.04.04.07.01.02.03.04.05.06.02.02.03.04.05.06.02.02.03.04.05.06.02.02.04.04.06.06.02.02.04.04.06.05.02.02.04.03.06.05.02.02.04.03.06.05.02.02.04.03.07.04.02.01.04.03.07.04.02.01.05.02.07.04.02.01.05.02.07.03.02.01.05.02.07.03.02,0,.05.02.08.03.02,0,.05.02.08.02.03,0,.05.01.08.02.03,0,.05.01.08.02.03,0,.05,0,.08.01.03,0,.05,0,.08.01.03,0,.05,0,.08,0h.03s.05,0,.08,0c0,0,.02,0,.02,0,.03,0,.05,0,.08-.01.03,0,.05,0,.08-.01.03,0,.05-.01.08-.02.02,0,.05,0,.07-.01h.01s.02,0,.02-.01c.04-.01.07-.02.1-.03.02,0,.05-.02.07-.03.02-.01.05-.02.07-.03.02-.01.05-.02.07-.04.02-.01.05-.03.07-.04.02-.01.04-.03.07-.04.02-.02.04-.03.06-.05.02-.02.04-.03.06-.05.02-.02.04-.03.06-.05.02-.02.04-.04.06-.06.02-.02.04-.04.05-.06.02-.02.03-.04.05-.06.02-.02.03-.04.05-.06.02-.02.03-.04.04-.07.01-.02.03-.04.04-.07.01-.02.03-.05.04-.07.01-.02.02-.05.03-.07.01-.02.02-.05.03-.07,0-.02.02-.05.03-.07,0-.02.01-.05.02-.08,0-.03.01-.05.02-.08,0-.03.01-.05.01-.08,0-.03,0-.05.01-.08,0-.03,0-.05.01-.08,0-.03,0-.05,0-.08v-.03s0-.05,0-.08c0,0,0-.02,0-.02,0-.03,0-.05-.01-.08,0-.03,0-.05-.01-.08,0-.03-.01-.05-.02-.08,0-.02,0-.05-.01-.07h0s0-.03-.01-.03c-.01-.04-.02-.07-.03-.1,0-.02-.02-.05-.03-.07,0-.02-.02-.05-.03-.07-.01-.02-.02-.05-.04-.07-.01-.02-.03-.05-.04-.07-.01-.02-.03-.04-.04-.07-.01-.02-.03-.04-.05-.06-.02-.02-.03-.04-.05-.06-.02-.02-.03-.04-.05-.06-.02-.02-.04-.04-.06-.06-.02-.02-.04-.04-.06-.05-.02-.02-.04-.03-.06-.05-.02-.02-.04-.03-.06-.05-.02-.02-.04-.03-.07-.04-.02-.01-.04-.03-.07-.04-.02-.01-.05-.02-.07-.04-.02-.01-.05-.02-.07-.03-.02-.01-.05-.02-.07-.03-.02,0-.05-.02-.07-.03-.02,0-.05-.02-.08-.02-.03,0-.05-.01-.08-.02-.03,0-.05-.01-.08-.01-.03,0-.05,0-.08-.01-.03,0-.05,0-.08-.01-.03,0-.05,0-.08,0h-.03ZM335.8,90.08"/>
          <path class="cls-12" d="M380.67,176.9c0,5.19-20.09,9.4-44.87,9.4s-44.87-4.21-44.87-9.4c0-2.49,4.73-4.88,13.14-6.64,8.41-1.76,19.83-2.75,31.73-2.75s23.31.99,31.73,2.75c8.41,1.76,13.14,4.15,13.14,6.64h0ZM380.67,176.9"/>
          <path class="cls-18" d="M324.83,152.31c0,9.64-3.21,23.34-7.18,23.34s-7.18-13.7-7.18-23.34,4.24-11.56,7.18-11.56,7.18,1.93,7.18,11.56h0ZM324.83,152.31"/>
          <path class="cls-5" d="M308.74,157.63c.34,3.6,1.01,7.29,1.91,10.51.68,2.42,1.48,4.56,2.49,6.25,1.01,1.69,2.37,3.27,4.51,3.27s3.5-1.58,4.51-3.27c1.01-1.69,1.81-3.83,2.49-6.25.9-3.21,1.56-6.91,1.91-10.51h-4.03c-.34,3.25-.94,6.61-1.73,9.42-.62,2.21-1.36,4.09-2.07,5.28-.53.89-.96,1.18-1.08,1.28-.11-.09-.55-.39-1.08-1.28-.71-1.18-1.45-3.07-2.07-5.28-.79-2.82-1.4-6.17-1.73-9.42h-4.03ZM308.74,157.63"/>
          <path class="cls-5" d="M317.66,138.74c-1.91,0-4.38.7-6.22,2.88s-2.96,5.58-2.96,10.69c0,2.05.14,4.25.39,6.46h4.04c-.27-2.23-.42-4.45-.42-6.46,0-4.52,1-6.9,2.01-8.1,1.01-1.2,2.13-1.46,3.16-1.46s2.15.26,3.16,1.46c1.01,1.2,2.01,3.58,2.01,8.1,0,2-.15,4.22-.42,6.46h4.04c.25-2.21.39-4.41.39-6.46,0-5.11-1.12-8.52-2.96-10.69-1.84-2.17-4.31-2.88-6.22-2.88h0ZM317.66,138.74"/>
          <path class="cls-18" d="M361.12,152.31c0,9.64-3.21,23.34-7.18,23.34s-7.18-13.7-7.18-23.34,4.24-11.56,7.18-11.56,7.18,1.93,7.18,11.56h0ZM361.12,152.31"/>
          <path class="cls-5" d="M345.03,157.63c.34,3.6,1.01,7.29,1.91,10.51.68,2.42,1.48,4.56,2.49,6.25,1.01,1.69,2.37,3.27,4.51,3.27s3.5-1.58,4.51-3.27c1.01-1.69,1.81-3.83,2.49-6.25.9-3.21,1.56-6.91,1.91-10.51h-4.03c-.34,3.25-.94,6.61-1.73,9.42-.62,2.21-1.36,4.09-2.07,5.28-.53.89-.96,1.18-1.07,1.28-.11-.09-.55-.39-1.08-1.28-.71-1.18-1.45-3.07-2.07-5.28-.79-2.82-1.4-6.17-1.73-9.42h-4.03ZM345.03,157.63"/>
          <path class="cls-5" d="M353.94,138.74c-1.91,0-4.38.7-6.22,2.88-1.84,2.17-2.96,5.58-2.96,10.69,0,2.05.14,4.25.39,6.46h4.04c-.27-2.23-.42-4.45-.42-6.46,0-4.52,1-6.9,2.01-8.1,1.01-1.2,2.13-1.46,3.16-1.46s2.15.26,3.16,1.46c1.01,1.2,2.01,3.58,2.01,8.1,0,2-.15,4.22-.42,6.46h4.04c.25-2.21.39-4.41.39-6.46,0-5.11-1.12-8.52-2.96-10.69-1.84-2.17-4.31-2.88-6.22-2.88h0ZM353.94,138.74"/>
          <path class="cls-18" d="M281.05,111.92c-8.35-4.82-18.6-14.45-16.62-17.89,1.98-3.43,15.45.63,23.8,5.45,8.35,4.82,7.89,9.46,6.42,12-1.47,2.54-5.26,5.25-13.6.44h0ZM281.05,111.92"/>
          <path class="cls-5" d="M284.49,95.32c-3.29-1.5-6.82-2.78-10.05-3.6-2.44-.62-4.69-1-6.66-.97-1.97.03-4.01.42-5.09,2.28-1.07,1.86-.38,3.82.57,5.54.96,1.72,2.41,3.48,4.17,5.28,2.33,2.39,5.2,4.81,8.14,6.9l2.02-3.49c-2.65-1.92-5.25-4.12-7.29-6.21-1.6-1.64-2.86-3.23-3.53-4.43-.5-.9-.54-1.42-.57-1.57.14-.05.61-.28,1.64-.29,1.38-.02,3.38.28,5.6.84,2.84.72,6.04,1.88,9.03,3.21l2.02-3.49ZM284.49,95.32"/>
          <path class="cls-5" d="M296.39,112.48c.95-1.65,1.58-4.14.62-6.82-.96-2.68-3.35-5.35-7.78-7.91-1.77-1.02-3.75-2-5.79-2.89l-2.02,3.5c2.07.88,4.07,1.86,5.8,2.86,3.92,2.26,5.48,4.32,6.01,5.79.53,1.48.2,2.57-.32,3.47-.52.89-1.3,1.73-2.84,2.01-1.54.28-4.11-.04-8.02-2.31-1.74-1-3.58-2.24-5.38-3.59l-2.02,3.5c1.79,1.32,3.62,2.54,5.4,3.57,4.43,2.56,7.94,3.29,10.74,2.78,2.8-.51,4.65-2.3,5.6-3.95h0ZM296.39,112.48"/>
          <path class="cls-18" d="M395.19,100.72c2.49,9.31,2.94,23.37-.89,24.4-3.83,1.03-10.48-11.38-12.97-20.68-2.49-9.31,1.11-12.27,3.94-13.03,2.84-.76,7.43,0,9.93,9.31h0ZM395.19,100.72"/>
          <path class="cls-5" d="M381.02,110.02c1.26,3.38,2.86,6.78,4.56,9.66,1.28,2.16,2.61,4.02,4.02,5.39,1.41,1.37,3.13,2.54,5.21,1.99,2.07-.56,2.97-2.43,3.51-4.32.54-1.89.76-4.17.79-6.68.04-3.34-.28-7.08-.88-10.64l-3.9,1.04c.52,3.23.8,6.62.76,9.55-.03,2.29-.26,4.31-.63,5.63-.28.99-.62,1.39-.71,1.51-.13-.06-.63-.24-1.37-.95-.99-.96-2.2-2.59-3.37-4.56-1.49-2.52-2.95-5.6-4.11-8.65l-3.9,1.04ZM381.02,110.02"/>
          <path class="cls-5" d="M384.74,89.47c-1.84.49-4.05,1.81-5.26,4.39-1.22,2.58-1.42,6.15-.1,11.09.53,1.98,1.23,4.07,2.05,6.14l3.9-1.05c-.84-2.09-1.56-4.19-2.08-6.13-1.17-4.37-.82-6.93-.15-8.35.67-1.42,1.68-1.96,2.68-2.23.99-.27,2.14-.3,3.43.59,1.29.89,2.87,2.93,4.04,7.3.52,1.94.95,4.12,1.26,6.35l3.9-1.05c-.33-2.2-.77-4.36-1.3-6.34-1.32-4.94-3.29-7.93-5.63-9.56-2.34-1.62-4.91-1.66-6.75-1.17h0ZM384.74,89.47"/>
          <path class="cls-5" d="M335.8,35.11c-15.76,0-29.86,8.58-39.89,21.24-10.03,12.66-16.17,29.49-16.17,46.73,0,34.49,25.29,57.77,56.06,57.77s56.06-23.28,56.06-57.77c0-17.24-6.14-34.07-16.17-46.73-10.03-12.66-24.13-21.24-39.89-21.24h0ZM335.8,41.52c13.43,0,25.76,7.33,34.86,18.81,9.1,11.48,14.79,27.04,14.79,42.75,0,31.42-22.04,51.36-49.65,51.36s-49.65-19.94-49.65-51.36c0-15.71,5.69-31.27,14.79-42.75,9.1-11.48,21.43-18.81,34.86-18.81h0ZM335.8,41.52"/>
          <path class="cls-5" d="M360.56,6.16c-10.47-.04-19.02,5.06-19.02,5.06l-2.81,1.6,1.63,2.8s7.36,13.16,20.9,16.79c13.54,3.63,26.5-4.09,26.5-4.09l2.81-1.6-1.63-2.79s-7.36-13.16-20.9-16.79c-2.54-.68-5.06-.96-7.47-.97h0ZM362.51,12.69c1.29.09,2.59.29,3.87.64,6.89,1.85,12.16,7.42,14.9,10.9-4.12,1.64-11.47,3.84-18.36,1.99-6.89-1.85-12.16-7.42-14.9-10.9,3.36-1.34,8.82-3.03,14.49-2.63h0ZM362.51,12.69"/>
          <path class="cls-13" d="M386.17,25.54s-12.19,6.96-24.08,3.78c-11.89-3.18-18.96-15.31-18.96-15.31,0,0,12.19-6.96,24.08-3.78,11.88,3.18,18.96,15.31,18.96,15.31h0ZM386.17,25.54"/>
          <path class="cls-31" d="M386.17,25.54l-43.04-11.53s7.08,12.12,18.96,15.31c11.88,3.18,24.08-3.78,24.08-3.78h0ZM386.17,25.54"/>
          <line class="cls-9" x1="343.13" y1="14.01" x2="386.17" y2="25.54"/>
          <path class="cls-15" d="M343.23,13.62l-.21.77,43.04,11.53.21-.77-43.04-11.53ZM343.23,13.62"/>
          <path class="cls-15" d="M370.19,11.11l-8,8,2.93,10.93.77-.21-2.81-10.49,7.68-7.68-.57-.57ZM370.19,11.11"/>
          <path class="cls-15" d="M377.83,15.93l-5.82,5.82,2.13,7.95.77-.21-2.01-7.5,5.49-5.49-.57-.57ZM377.83,15.93"/>
          <path class="cls-15" d="M359.02,9.16l-7.18,7.18,2.63,9.81.77-.21-2.51-9.36,6.85-6.85-.57-.57ZM359.02,9.16"/>
          <path class="cls-5" d="M360.57,8.59c-9.66,0-17.84,4.72-17.84,4.72l-.7.4.41.7s7.15,12.38,19.45,15.68c12.3,3.3,24.68-3.85,24.68-3.85l.7-.4-.41-.7s-7.15-12.38-19.45-15.68c-2.31-.62-4.62-.87-6.85-.87h0ZM360.57,10.2c2.11,0,4.28.22,6.43.8,10.39,2.78,16.82,12.36,18,14.22-1.95,1.02-12.31,6.1-22.7,3.32-10.39-2.78-16.82-12.36-18-14.22,1.55-.81,8.21-4.09,16.27-4.12h0ZM360.57,10.2"/>
          <path class="cls-5" d="M334.36,0s-.76-.01-1.7.11h0c-1.41.19-3.56.67-5.71,2.09-2.15,1.42-4.24,3.89-5.12,7.4l-.45,1.77,1.3,1.29c3.26,3.23,5.67,7.3,6.89,11.85,0,0,0,0,0,0,1.54,5.75,1.04,11.58-1.06,16.72l5.94,2.42c.45-1.11.82-2.26,1.15-3.41l5.3,2.86c4.41-8.17,5.83-18.01,3.23-27.68h0s0,0,0,0c-1.43-5.3-3.97-10.14-7.38-14.25l-.93-1.12-1.46-.03ZM332.84,6.62c2.3,3.11,4.07,6.62,5.11,10.46,1.98,7.38,1.12,14.8-1.84,21.22,1.09-4.96,1.05-10.25-.34-15.46h0s0,0,0,0c-1.34-4.96-3.85-9.42-7.18-13.16.5-1.02,1.16-1.65,1.88-2.13.78-.52,1.64-.77,2.37-.93h0ZM332.84,6.62"/>
          <path class="cls-28" d="M333.08,3.29c-2.2.29-6.76,1.57-8.15,7.09,3.66,3.63,6.36,8.19,7.73,13.29,1.72,6.44,1.17,12.99-1.18,18.77l6.6-.87c4.04-7.48,5.33-16.47,2.96-25.33-1.31-4.85-3.64-9.28-6.75-13.04,0,0-.47-.01-1.2.09h0ZM333.08,3.29"/>
          <path class="cls-25" d="M336.65,19.29c-1.41.21-3.02.79-4.73,2.05.28.76.53,1.54.74,2.33,1.72,6.44,1.17,12.99-1.18,18.77l6.6-.87c3.44-6.37,4.89-13.83,3.78-21.38,0,0-2.11-1.36-5.2-.91h0ZM336.65,19.29"/>
          <path class="cls-5" d="M334.3,2.4s-.54-.01-1.33.09h0c-1.18.16-2.98.57-4.71,1.71-1.73,1.14-3.37,3.03-4.11,5.98l-.11.44.32.32c3.56,3.53,6.18,7.97,7.52,12.93,1.68,6.27,1.14,12.64-1.15,18.26l1.48.6c2.42-5.93,2.98-12.66,1.21-19.28h0c-1.37-5.07-4.03-9.6-7.6-13.26.68-2.33,1.93-3.75,3.31-4.66,1.45-.95,3.03-1.32,4.04-1.46.45-.06.54-.05.71-.05,2.92,3.61,5.12,7.82,6.36,12.42,2.32,8.66,1.05,17.43-2.89,24.74l1.41.76c4.13-7.66,5.46-16.85,3.03-25.91h0c-1.34-4.96-3.72-9.49-6.91-13.34l-.23-.28h-.37ZM334.3,2.4"/>
          <path class="cls-17" d="M388.65,103.08c0,32.95-23.66,54.56-52.86,54.56s-52.86-21.61-52.86-54.56,23.66-64.77,52.86-64.77,52.86,31.81,52.86,64.77h0ZM388.65,103.08"/>
          <path class="cls-18" d="M335.8,38.32c-29.19,0-52.86,31.81-52.86,64.77,0,2.88.18,5.66.53,8.36,6.8,18.59,23.85,29.96,43.82,29.96,25.94,0,46.97-19.21,46.97-48.49,0-23-12.98-45.37-31.11-53.92-2.4-.45-4.86-.68-7.35-.68h0ZM335.8,38.32"/>
          <path class="cls-6" d="M322.91,40.43c-18.47,6.12-33.09,24.87-38.09,46.51,3.91,13.55,15.69,21.95,29.63,21.95,17.13,0,31.01-12.68,31.01-32.01,0-16.02-9.54-31.58-22.55-36.44h0ZM322.91,40.43"/>
          <path class="cls-5" d="M335.8,37.52c-14.89,0-28.32,8.11-38,20.33-9.68,12.22-15.65,28.57-15.65,45.24,0,33.33,24.07,55.36,53.66,55.36s53.66-22.03,53.66-55.36c0-16.67-5.97-33.02-15.65-45.24-9.68-12.22-23.12-20.33-38-20.33h0ZM335.8,39.12c14.31,0,27.3,7.8,36.75,19.72,9.45,11.92,15.31,27.96,15.31,44.24,0,32.57-23.26,53.76-52.06,53.76s-52.05-21.19-52.05-53.76c0-16.28,5.86-32.32,15.31-44.24,9.45-11.93,22.44-19.72,36.75-19.72h0ZM335.8,39.12"/>
          <path class="cls-17" d="M352.49,126.72c0,1.22-.49,2.4-1.35,3.26-.87.87-2.04,1.35-3.26,1.35s-2.4-.49-3.26-1.35c-.87-.87-1.35-2.04-1.35-3.26,0-2.55,2.07-4.62,4.62-4.62s4.62,2.07,4.62,4.62h0ZM352.49,126.72"/>
          <path class="cls-17" d="M355.92,115.11c0,1.34-1.09,2.43-2.43,2.43s-2.43-1.09-2.43-2.43c0-.65.26-1.26.71-1.72.46-.46,1.08-.71,1.72-.71s1.26.26,1.72.71c.46.46.71,1.08.71,1.72h0ZM355.92,115.11"/>
          <path class="cls-17" d="M301.81,113.71c0,.65-.26,1.26-.71,1.72-.46.46-1.08.71-1.72.71s-1.26-.26-1.72-.71c-.46-.46-.71-1.08-.71-1.72,0-1.34,1.09-2.43,2.43-2.43s2.43,1.09,2.43,2.43h0ZM301.81,113.71"/>
          <path class="cls-17" d="M324.15,134.67c0,1.34-1.09,2.43-2.43,2.43s-2.43-1.09-2.43-2.43c0-.65.26-1.26.71-1.72.46-.46,1.08-.71,1.72-.71s1.26.26,1.72.71c.46.46.71,1.08.71,1.72h0ZM324.15,134.67"/>
          <path class="cls-17" d="M309.24,136.04c0,1.22-.49,2.4-1.35,3.26-.87.87-2.04,1.35-3.26,1.35s-2.4-.49-3.26-1.35c-.87-.87-1.35-2.04-1.35-3.26,0-2.55,2.07-4.62,4.62-4.62s4.62,2.07,4.62,4.62h0ZM309.24,136.04"/>
          <path class="cls-17" d="M327.14,96.74c0,.65-.26,1.26-.71,1.72-.46.46-1.08.71-1.72.71s-1.26-.26-1.72-.71c-.46-.46-.71-1.08-.71-1.72,0-1.34,1.09-2.43,2.43-2.43s2.43,1.09,2.43,2.43h0ZM327.14,96.74"/>
          <path class="cls-17" d="M345.92,91.12c0,1.22-.49,2.4-1.35,3.26-.87.87-2.04,1.35-3.26,1.35s-2.4-.49-3.26-1.35c-.87-.87-1.35-2.04-1.35-3.26,0-2.55,2.07-4.62,4.62-4.62s4.62,2.07,4.62,4.62h0ZM345.92,91.12"/>
          <path class="cls-17" d="M354.42,76.45c0,1.34-1.09,2.43-2.43,2.43s-2.43-1.09-2.43-2.43c0-.65.26-1.26.71-1.72.46-.46,1.08-.71,1.72-.71s1.26.26,1.72.71c.46.46.71,1.08.71,1.72h0ZM354.42,76.45"/>
          <path class="cls-17" d="M357.66,58.85c0,1.22-.49,2.4-1.35,3.26-.87.87-2.04,1.35-3.26,1.35s-2.4-.49-3.26-1.35c-.87-.87-1.35-2.04-1.35-3.26,0-2.55,2.07-4.62,4.62-4.62s4.62,2.07,4.62,4.62h0ZM357.66,58.85"/>
          <path class="cls-17" d="M377.72,105.9c0,2.55-2.07,4.62-4.62,4.62s-4.62-2.07-4.62-4.62c0-1.22.49-2.4,1.35-3.26.87-.87,2.04-1.35,3.26-1.35s2.4.49,3.26,1.35c.87.87,1.35,2.04,1.35,3.26h0ZM377.72,105.9"/>
          <path class="cls-17" d="M316.79,55.93c0,.65-.26,1.26-.71,1.72-.46.46-1.08.71-1.72.71s-1.26-.26-1.72-.71c-.46-.46-.71-1.08-.71-1.72,0-1.34,1.09-2.43,2.43-2.43s2.43,1.09,2.43,2.43h0ZM316.79,55.93"/>
          <path class="cls-17" d="M305.05,80.67c0,1.22-.49,2.4-1.35,3.26s-2.04,1.35-3.26,1.35-2.4-.49-3.26-1.35c-.87-.87-1.35-2.04-1.35-3.26,0-2.55,2.07-4.62,4.62-4.62s4.62,2.07,4.62,4.62h0ZM305.05,80.67"/>
          <path class="cls-24" d="M356.98,77.85c-4.63,0-8.38,2.1-8.38,4.69,0,1.24.88,2.44,2.45,3.32,1.57.88,3.7,1.37,5.93,1.37s4.35-.49,5.92-1.37c1.57-.88,2.45-2.07,2.45-3.32,0-2.59-3.75-4.69-8.38-4.69h0ZM356.98,77.85"/>
          <path class="cls-24" d="M314.62,77.85c-4.63,0-8.38,2.1-8.38,4.69,0,1.24.88,2.44,2.45,3.32,1.57.88,3.7,1.37,5.92,1.37s4.35-.49,5.92-1.37c1.57-.88,2.45-2.07,2.45-3.32,0-2.59-3.75-4.69-8.38-4.69h0ZM314.62,77.85"/>
          <path class="cls-5" d="M310.14,74.44c0-3.08,1.65-5.93,4.31-7.47,2.67-1.54,5.96-1.54,8.62,0,2.67,1.54,4.31,4.39,4.31,7.47h-3.21c0-1.94-1.03-3.72-2.71-4.69-1.68-.97-3.74-.97-5.42,0-1.68.97-2.71,2.76-2.71,4.69h-3.21ZM310.14,74.44"/>
          <path class="cls-5" d="M344.21,74.44c0-3.08,1.65-5.93,4.31-7.47,2.67-1.54,5.96-1.54,8.62,0,2.67,1.54,4.31,4.39,4.31,7.47h-3.21c0-1.94-1.03-3.72-2.71-4.69-1.68-.97-3.74-.97-5.42,0-1.68.97-2.71,2.76-2.71,4.69h-3.21ZM344.21,74.44"/>
          <path class="cls-29" d="M317.25,85.71c-2.14,0-3.87,1.73-3.87,3.87v4.37c0,12.38,10.04,22.42,22.42,22.42s22.42-10.04,22.42-22.42v-4.37c0-2.14-1.73-3.87-3.87-3.87h-37.1ZM317.25,85.71"/>
          <path class="cls-21" d="M340.18,85.71h0s3.81,7.32,0,14.07c4.75,7.5.57,16.04.57,16.04,10-2.25,17.48-11.19,17.48-21.87v-4.37c0-2.14-1.73-3.87-3.87-3.87h-14.17ZM340.18,85.71"/>
          <path class="cls-5" d="M351.18,85.71h0s4.36,5.03,0,10.35c5.02,4.67.34,13.86.34,13.86,4.13-4.07,6.7-9.72,6.7-15.98v-4.37c0-2.14-1.73-3.87-3.87-3.87h-3.17ZM351.18,85.71"/>
          <path class="cls-5" d="M320.42,85.71h0s-4.36,5.03,0,10.35c-5.02,4.67-.34,13.86-.34,13.86-4.13-4.07-6.7-9.72-6.7-15.98v-4.37c0-2.14,1.73-3.87,3.87-3.87h3.17ZM320.42,85.71"/>
          <path class="cls-5" d="M335.23,84.91v1.6h19.12c1.71,0,3.07,1.35,3.07,3.07v4.37c0,11.95-9.67,21.62-21.62,21.62-.19,0-.38,0-.57,0v1.6c.19,0,.38,0,.57,0,12.82,0,23.22-10.4,23.22-23.22v-4.37c0-2.57-2.1-4.67-4.67-4.67h-19.12ZM335.23,84.91"/>
          <path class="cls-5" d="M317.25,84.91c-2.57,0-4.67,2.1-4.67,4.67v4.37c0,12.82,10.41,23.22,23.22,23.22.19,0,.38,0,.57,0v-1.6c-.19,0-.38,0-.57,0-11.95,0-21.62-9.67-21.62-21.62v-4.37c0-1.71,1.35-3.07,3.07-3.07h19.12v-1.6h-19.12ZM317.25,84.91"/>
          <path class="cls-5" d="M335.8,4.98c-.19,0-.38,0-.57,0v6.41c.19,0,.38,0,.57,0,6.68,0,12.55,2.11,16.69,5.69,4.14,3.59,6.65,8.59,6.65,15.08v11.32c0,1.39-.03,2.51-.21,3.28-.32,1.31-.93,1.75-2.15,2.13-1.21.39-2.95.3-3.91,0-5.34-1.75-11.07-2.79-17.07-2.79-.19,0-.38,0-.57,0v6.41c.19,0,.38,0,.57,0,5.26,0,10.31.91,15.08,2.47,2.35.77,5.1.9,7.86.02,2.75-.88,5.57-3.19,6.42-6.73.44-1.81.39-3.43.39-4.79v-11.32c0-8.21-3.41-15.2-8.87-19.93-5.46-4.73-12.86-7.26-20.89-7.26h0ZM335.8,4.98"/>
          <path class="cls-5" d="M335.8,4.98c-8.03,0-15.43,2.53-20.89,7.26-5.46,4.73-8.87,11.71-8.87,19.93v11.32c0,1.35-.05,2.98.39,4.79.86,3.54,3.67,5.85,6.42,6.73,2.75.88,5.51.75,7.86-.02,4.77-1.56,9.82-2.47,15.08-2.47.19,0,.38,0,.57,0v-6.41c-.19,0-.38,0-.57,0-6,0-11.73,1.05-17.07,2.79-.96.31-2.7.4-3.91,0-1.21-.39-1.83-.83-2.15-2.13-.19-.77-.21-1.89-.21-3.28v-11.32c0-6.49,2.51-11.5,6.65-15.08,4.14-3.59,10.01-5.69,16.69-5.69.19,0,.38,0,.57,0v-6.41c-.19,0-.38,0-.57,0h0ZM335.8,4.98"/>
          <path class="cls-14" d="M351.88,51.94c3.31,1.08,8.99.43,10.17-4.42.31-1.29.3-2.66.3-4.03v-11.32c0-14.71-11.84-23.98-26.55-23.98s-26.55,9.27-26.55,23.98v11.32c0,1.37-.01,2.74.3,4.03,1.18,4.85,6.86,5.5,10.17,4.42,5.06-1.65,10.45-2.63,16.08-2.63s11.02.98,16.08,2.63h0ZM351.88,51.94"/>
          <path class="cls-3" d="M335.8,36.15c-9.78,0-18.87,2.79-26.55,7.62,0,1.28,0,2.55.3,3.75,1.18,4.85,6.86,5.5,10.17,4.42,5.06-1.65,10.45-2.63,16.08-2.63s11.02.98,16.08,2.63c3.31,1.08,8.99.43,10.17-4.42.29-1.2.3-2.48.3-3.75-7.67-4.83-16.77-7.62-26.55-7.62h0ZM335.8,36.15"/>
          <path class="cls-29" d="M335.44,8.33c-14.71,0-26.55,9.27-26.55,23.98v11.6c7.67-4.83,16.77-7.62,26.55-7.62s18.87,2.79,26.55,7.62v-11.6c0-14.71-11.84-23.98-26.55-23.98h0ZM335.44,8.33"/>
          <path class="cls-2" d="M356.71,16.76v23.95c1.95.9,3.83,1.92,5.63,3.05v-11.6c0-6.2-2.1-11.43-5.63-15.41h0ZM356.71,16.76"/>
          <path class="cls-3" d="M314.89,16.76c-3.53,3.98-5.64,9.21-5.64,15.41v11.6c1.8-1.13,3.68-2.15,5.63-3.05h0s0-23.96,0-23.96ZM314.89,16.76"/>
          <path class="cls-2" d="M356.71,40.72c1.95.9,3.83,1.92,5.63,3.05,0,1.28,0,2.55-.3,3.75-1.18,4.85-6.86,5.5-10.17,4.42-.32-.1-.64-.21-.97-.31,2.51-.91,4.64-2.74,5.39-5.85.39-1.63.41-3.34.41-5.07h0ZM356.71,40.72"/>
          <path class="cls-5" d="M335.8,7.39c-.19,0-.38,0-.57,0v1.6c.19,0,.38,0,.57,0,7.19,0,13.63,2.27,18.27,6.28,4.63,4.01,7.48,9.76,7.48,16.9v11.32c0,1.38,0,2.68-.28,3.84-.52,2.14-1.96,3.29-3.75,3.86-1.79.57-3.91.47-5.39-.01-5.13-1.68-10.6-2.67-16.33-2.67-.19,0-.38,0-.57,0v1.6c.19,0,.38,0,.57,0,5.54,0,10.84.96,15.83,2.59,1.83.6,4.2.71,6.37.02,2.17-.69,4.16-2.3,4.82-5.01.35-1.42.33-2.85.33-4.22v-11.32c0-7.57-3.07-13.81-8.04-18.11-4.96-4.3-11.79-6.67-19.32-6.67h0ZM335.8,7.39"/>
          <rect class="cls-5" x="355.91" y="16.76" width="1.6" height="23.95"/>
          <rect class="cls-5" x="314.08" y="16.76" width="1.6" height="23.95"/>
          <path class="cls-5" d="M335.8,7.39c-7.52,0-14.35,2.37-19.31,6.67-4.96,4.3-8.04,10.54-8.04,18.11v11.32c0,1.37-.02,2.8.33,4.22.66,2.7,2.65,4.31,4.82,5.01,2.17.7,4.55.58,6.37-.02,4.99-1.63,10.29-2.59,15.83-2.59.19,0,.38,0,.57,0v-1.6c-.19,0-.38,0-.57,0-5.73,0-11.2,1-16.33,2.67-1.48.48-3.6.59-5.39.01-1.79-.57-3.23-1.71-3.75-3.86-.28-1.16-.28-2.47-.28-3.84v-11.32c0-7.14,2.85-12.89,7.48-16.9,4.63-4.01,11.08-6.28,18.26-6.28.19,0,.38,0,.57,0v-1.6c-.19,0-.38,0-.57,0h0ZM335.8,7.39"/>
          <path class="cls-5" d="M419.91,101.57v6.41h22.84c.98,0,1.66.69,1.66,1.66v35.64c0,.98-.69,1.66-1.66,1.66h-22.84v6.41h22.84c4.42,0,8.07-3.66,8.07-8.07v-35.64c0-4.42-3.66-8.07-8.07-8.07h-22.84ZM419.91,101.57"/>
          <path class="cls-5" d="M419.91,92v6.41h4.74c2.93,0,5.19,2.26,5.19,5.19s-2.26,5.19-5.19,5.19h-4.74v6.41h4.74c6.37,0,11.6-5.23,11.6-11.6s-5.23-11.6-11.6-11.6h-4.74ZM419.91,92"/>
          <path class="cls-5" d="M381.18,101.57c-4.42,0-8.07,3.66-8.07,8.07v35.64c0,4.42,3.66,8.07,8.07,8.07h39.87v-6.41h-39.87c-.98,0-1.66-.69-1.66-1.66v-35.64c0-.98.69-1.66,1.66-1.66h39.87v-6.41h-39.87ZM381.18,101.57"/>
          <path class="cls-5" d="M416.31,92c-6.37,0-11.6,5.23-11.6,11.6s5.23,11.6,11.6,11.6h4.74v-6.41h-4.74c-2.93,0-5.19-2.26-5.19-5.19s2.26-5.19,5.19-5.19h4.74v-6.41h-4.74ZM416.31,92"/>
          <path class="cls-10" d="M416.31,95.2h8.34c4.65,0,8.4,3.75,8.4,8.4s-3.75,8.4-8.4,8.4h-8.34c-4.65,0-8.4-3.75-8.4-8.4s3.75-8.4,8.4-8.4h0ZM416.31,95.2"/>
          <path class="cls-5" d="M419.91,94.4v1.6h4.74c4.22,0,7.6,3.37,7.6,7.6s-3.37,7.6-7.6,7.6h-4.74v1.6h4.74c5.08,0,9.2-4.12,9.2-9.2s-4.12-9.2-9.2-9.2h-4.74ZM419.91,94.4"/>
          <path class="cls-11" d="M381.18,104.77h61.57c2.7,0,4.87,2.17,4.87,4.87v35.64c0,2.7-2.17,4.87-4.87,4.87h-61.57c-2.7,0-4.87-2.17-4.87-4.87v-35.64c0-2.7,2.17-4.87,4.87-4.87h0ZM381.18,104.77"/>
          <path class="cls-5" d="M416.31,94.4c-5.08,0-9.2,4.12-9.2,9.2s4.12,9.2,9.2,9.2h4.74v-1.6h-4.74c-4.22,0-7.6-3.37-7.6-7.6s3.37-7.6,7.6-7.6h4.74v-1.6h-4.74ZM416.31,94.4"/>
          <path class="cls-18" d="M381.18,104.77h61.57c2.7,0,4.87,2.17,4.87,4.87v35.64c0,2.7-2.17,4.87-4.87,4.87h-61.57c-2.7,0-4.87-2.17-4.87-4.87v-35.64c0-2.7,2.17-4.87,4.87-4.87h0ZM381.18,104.77"/>
          <path class="cls-1" d="M443.85,127.46c0,5.05-2.01,9.89-5.58,13.46-3.57,3.57-8.41,5.58-13.46,5.58s-9.89-2.01-13.46-5.58c-3.57-3.57-5.58-8.41-5.58-13.46,0-10.52,8.52-19.04,19.04-19.04s19.04,8.52,19.04,19.04h0ZM443.85,127.46"/>
          <path class="cls-20" d="M443.05,127.46c0,1.51-.6,2.96-1.67,4.02-1.07,1.07-2.51,1.67-4.02,1.67s-2.96-.6-4.02-1.67c-1.07-1.07-1.67-2.51-1.67-4.02s.6-2.96,1.67-4.02c1.07-1.07,2.51-1.67,4.02-1.67s2.96.6,4.02,1.67c1.07,1.07,1.67,2.51,1.67,4.02h0ZM443.05,127.46"/>
          <path class="cls-8" d="M381.18,104.77c-2.7,0-4.87,2.17-4.87,4.87v35.64c0,2.7,2.17,4.87,4.87,4.87h12.16v-45.38h-12.16ZM381.18,104.77"/>
          <path class="cls-5" d="M430.9,126.89c-.02.19-.03.38-.03.57,0,3.57,2.91,6.49,6.49,6.49s6.49-2.91,6.49-6.49c0-.19-.01-.38-.03-.57h-1.61c.02.19.03.38.03.57,0,2.71-2.18,4.89-4.89,4.89s-4.89-2.18-4.89-4.89c0-.19.01-.38.03-.57h-1.61ZM430.9,126.89"/>
          <path class="cls-5" d="M437.36,120.97c-3.57,0-6.49,2.92-6.49,6.49,0,.19.01.38.03.57h1.61c-.02-.19-.03-.38-.03-.57,0-2.71,2.18-4.89,4.89-4.89s4.89,2.18,4.89,4.89c0,.19-.01.38-.03.57h1.61c.02-.19.03-.38.03-.57,0-3.57-2.92-6.49-6.49-6.49h0ZM437.36,120.97"/>
          <path class="cls-19" d="M439.52,127.46c0,10.52-8.52,19.04-19.04,19.04-5.05,0-9.89-2.01-13.46-5.58-3.57-3.57-5.58-8.41-5.58-13.46,0-10.52,8.52-19.04,19.04-19.04s19.04,8.52,19.04,19.04h0ZM439.52,127.46"/>
          <path class="cls-5" d="M420.48,107.62c-.19,0-.38,0-.57,0v1.6c.19,0,.38-.01.57-.01,10.08,0,18.24,8.16,18.24,18.24s-8.16,18.24-18.24,18.24c-.19,0-.38,0-.57-.01v1.6c.19,0,.38,0,.57,0,10.95,0,19.84-8.89,19.84-19.84s-8.89-19.84-19.84-19.84h0ZM420.48,107.62"/>
          <path class="cls-5" d="M420.48,114.95c-6.91,0-12.51,5.6-12.51,12.51,0,3.32,1.32,6.5,3.67,8.85,2.35,2.35,5.53,3.67,8.85,3.67,3.32,0,6.5-1.32,8.85-3.67,2.35-2.35,3.67-5.53,3.67-8.85s-1.32-6.5-3.67-8.85c-2.35-2.35-5.53-3.67-8.85-3.67h0ZM420.48,114.95"/>
          <path class="cls-5" d="M420.48,114.15c-.19,0-.38,0-.57.02v1.6c.19,0,.38-.02.57-.02,6.48,0,11.71,5.24,11.71,11.71s-5.23,11.71-11.71,11.71c-.19,0-.38,0-.57-.02v1.6c.19,0,.38.02.57.02,7.35,0,13.32-5.97,13.32-13.32s-5.97-13.32-13.32-13.32h0ZM420.48,114.15"/>
          <path class="cls-20" d="M418.08,117.48c-2.01,0-3.94.8-5.36,2.22-1.42,1.42-2.22,3.35-2.22,5.36,0,2.01.8,3.94,2.22,5.36,1.42,1.42,3.35,2.22,5.36,2.22s3.94-.8,5.36-2.22c1.42-1.42,2.22-3.35,2.22-5.36,0-4.19-3.4-7.59-7.59-7.59h0ZM418.08,117.48"/>
          <path class="cls-29" d="M420.48,116.67c-2.86,0-5.61,1.14-7.63,3.16-2.02,2.02-3.16,4.77-3.16,7.63,0,3.18,1.4,6.2,3.83,8.25-1.47-1.9-2.27-4.23-2.27-6.64,0-5.99,4.86-10.85,10.85-10.85,2.4,0,4.72.8,6.62,2.27-2.05-2.42-5.06-3.82-8.23-3.83h0ZM420.48,116.67"/>
          <path class="cls-29" d="M416.59,118.88c-1.25,0-2.44.5-3.32,1.38-.88.88-1.38,2.08-1.38,3.32,0,2.6,2.11,4.7,4.7,4.7s4.7-2.1,4.7-4.7c0-1.25-.5-2.44-1.38-3.32-.88-.88-2.08-1.38-3.32-1.38h0ZM416.59,118.88"/>
          <rect class="cls-32" x="393.34" y="104.77" width="5.12" height="45.38"/>
          <rect class="cls-5" x="392.54" y="104.77" width="1.6" height="45.38"/>
          <path class="cls-23" d="M387.97,112.03c0,.83-.33,1.64-.92,2.23-.59.59-1.39.92-2.23.92-1.74,0-3.15-1.41-3.15-3.15s1.41-3.15,3.15-3.15c.83,0,1.64.33,2.23.92.59.59.92,1.39.92,2.23h0ZM387.97,112.03"/>
          <path class="cls-16" d="M380.33,109.11c-.44,0-.79.37-.79.81v35.09c0,.21.08.42.23.57.15.15.36.24.57.24s.42-.09.57-.24.23-.36.23-.57v-35.09c0-.22-.08-.42-.24-.58-.15-.15-.36-.24-.58-.23h0ZM380.33,109.11"/>
          <path class="cls-5" d="M380.92,111.46c-.03.19-.05.38-.05.57,0,2.17,1.78,3.95,3.95,3.95s3.95-1.78,3.95-3.95c0-.19-.02-.38-.05-.57h-1.63c.04.18.07.37.07.57,0,1.31-1.04,2.35-2.35,2.35s-2.35-1.04-2.35-2.35c0-.2.03-.39.07-.57h-1.63ZM380.92,111.46"/>
          <path class="cls-5" d="M419.91,103.97v1.6h22.84c2.27,0,4.07,1.8,4.07,4.07v35.64c0,2.27-1.8,4.07-4.07,4.07h-22.84v1.6h22.84c3.13,0,5.67-2.54,5.67-5.67v-35.64c0-3.13-2.54-5.67-5.67-5.67h-22.84ZM419.91,103.97"/>
          <path class="cls-5" d="M420.48,107.62c-10.95,0-19.84,8.89-19.84,19.84s8.89,19.84,19.84,19.84c.19,0,.38,0,.57,0v-1.6c-.19,0-.38.01-.57.01-10.08,0-18.24-8.16-18.24-18.24s8.16-18.24,18.24-18.24c.19,0,.38,0,.57.01v-1.6c-.19,0-.38,0-.57,0h0ZM420.48,107.62"/>
          <path class="cls-5" d="M420.48,114.15c-7.34,0-13.32,5.97-13.32,13.32s5.97,13.32,13.32,13.32c.19,0,.38,0,.57-.01v-1.6c-.19,0-.38.01-.57.01-6.48,0-11.71-5.23-11.71-11.71s5.23-11.71,11.71-11.71c.19,0,.38,0,.57.02v-1.6c-.19,0-.38-.01-.57-.01h0ZM420.48,114.15"/>
          <path class="cls-5" d="M381.18,103.97c-3.13,0-5.67,2.54-5.67,5.67v35.64c0,3.13,2.54,5.67,5.67,5.67h39.87v-1.6h-39.87c-2.27,0-4.07-1.8-4.07-4.07v-35.64c0-2.27,1.8-4.07,4.07-4.07h39.87v-1.6h-39.87ZM381.18,103.97"/>
          <path class="cls-5" d="M384.82,108.08c-2.17,0-3.95,1.78-3.95,3.95,0,.19.02.38.05.57h1.63c-.04-.18-.07-.37-.07-.57,0-1.31,1.04-2.35,2.35-2.35s2.35,1.04,2.35,2.35c0,.2-.03.39-.07.57h1.63c.03-.19.05-.38.05-.57,0-2.17-1.78-3.95-3.95-3.95h0ZM384.82,108.08"/>
          <path class="cls-5" d="M220.3,97.19v29.11h48.63v-29.11h-6.41v22.7h-35.81v-22.7h-6.41ZM220.3,97.19"/>
          <path class="cls-5" d="M220.3,69.22v29.11h6.41v-22.7h35.81v22.7h6.41v-29.11h-48.63ZM220.3,69.22"/>
          <rect class="cls-29" x="223.51" y="72.43" width="42.22" height="50.67"/>
          <rect class="cls-30" x="230.46" y="79.38" width="28.32" height="36.77"/>
          <rect class="cls-4" x="230.46" y="79.38" width="28.32" height="18.38"/>
          <path class="cls-5" d="M222.71,97.19v26.71h43.83v-26.71h-1.6v25.1h-40.62v-25.1h-1.6ZM222.71,97.19"/>
          <path class="cls-7" d="M258.78,97.76l-12.98-12.98-6.87,8.95-4.57-4.57-3.9,5.08v3.51h28.32ZM258.78,97.76"/>
          <path class="cls-26" d="M238.93,83.85c-.63,0-1.23.25-1.67.69-.44.44-.69,1.05-.69,1.67,0,1.31,1.06,2.37,2.37,2.37s2.37-1.06,2.37-2.37c0-.63-.25-1.23-.69-1.67-.44-.44-1.05-.69-1.67-.69h0ZM238.93,83.85"/>
          <path class="cls-5" d="M222.71,71.63v26.71h1.6v-25.1h40.62v25.1h1.6v-26.71h-43.83ZM222.71,71.63"/>
          <path class="cls-5" d="M335.8,35.35c-9.93,0-19.18,2.83-26.97,7.74-.18.11-.31.29-.36.5-.05.21-.01.43.1.61.11.18.29.31.5.36.21.05.43,0,.61-.11,7.55-4.75,16.5-7.49,26.12-7.49s18.57,2.75,26.12,7.49c.18.12.4.16.61.11.21-.05.39-.17.5-.36.11-.18.15-.4.1-.61-.05-.21-.18-.39-.36-.5-7.8-4.9-17.05-7.74-26.98-7.74h0ZM335.8,35.35"/>
          <path class="cls-22" d="M284.01,117.57s9.48-5.96,18.42,10.87c4.63,8.73-2.55,17.47-2.55,17.47,0,0-14.08-1.07-15.86-28.34Z"/>
        </g>
        <g>
          <g>
            <path class="cls-27" d="M82.46,114.48v16.37H31.56c-4.56,0-8.22,1.37-10.98,4.11-2.76,2.74-4.14,6.41-4.14,11.02s1.38,8.2,4.14,10.91c2.76,2.72,6.42,4.08,10.98,4.08h50.9v16.44H31.56c-9.07,0-16.6-2.97-22.58-8.91-5.99-5.94-8.98-13.44-8.98-22.52s2.99-16.65,8.98-22.58c5.99-5.94,13.51-8.91,22.58-8.91h50.9Z"/>
            <path class="cls-27" d="M177.5,177.4h-16.37v-15.4h-53.46v15.4h-16.44v-35.36c0-9.16,4.49-16.28,13.47-21.34,7.41-4.14,16.02-6.22,25.83-6.22h7.8c9.99,0,18.62,2.07,25.9,6.22,8.84,4.97,13.26,12.09,13.26,21.34v35.36ZM161.13,145.42v-3.38c0-3.87-2.97-6.84-8.91-8.91-4.37-1.52-9-2.28-13.88-2.28h-7.8c-9.02,0-15.47,1.75-19.34,5.25-2.17,1.89-3.34,3.91-3.52,6.08v3.25h53.46Z"/>
            <path class="cls-27" d="M299.88,177.4h-16.37v-39.02c0-1.52-.81-2.95-2.42-4.28-2.67-2.16-6.93-3.25-12.78-3.25-9.58,0-14.57,2.51-14.99,7.53v39.02h-16.51v-39.02c-.37-5.02-5.36-7.53-14.99-7.53-5.85,0-10.11,1.08-12.78,3.25-1.57,1.34-2.35,2.76-2.35,4.28v39.02h-16.44v-39.16c0-7.64,3.5-13.68,10.5-18.1,5.94-3.77,12.96-5.66,21.06-5.66,9.9,0,17.68,2.39,23.34,7.18,5.53-4.79,13.24-7.18,23.14-7.18,8.15,0,15.19,1.89,21.13,5.66,6.95,4.42,10.43,10.45,10.43,18.1v39.16Z"/>
          </g>
          <g>
            <path class="cls-29" d="M112,49.02c-.78-.3-10.29-1.12-10.29-1.12,0,0,0,0-.01,0-15.87-1.36-31.76-1.2-47.66-.37,0,0,0,0,0,0,0,0-.01,0-.03,0-.08,0-.15,0-.23.01,0,0,0,0,0,0-1.9.14-13.58.97-13.64.98,0,0,0,0,.01,0-.33.02-.66.05-.98.09-4.63.54-9.26,1.1-13.89,1.66-.92.13-1.83.31-2.74.5-1.34.32-2.68.63-4,1.03-.62.25-.82.71-.67,1.35.28.44.56.81.98,1.03h0s0,0,0,0c.25.13.56.2.94.2,1.09,0,2.2.1,3.3.15.59.03,1.18.02,1.78.02,1.98.15,4.19.36,6.23.63,2.25.34,4.49.69,6.65,1.44,3.91,1.35,7.38,3.23,8.91,7.43.93,2.6.7,5.24.45,7.88-.17,1.68-.72,5.66-2.43,11.17-.18.56-.37,1.13-.57,1.68-3.03,8.49-7.34,16.37-11.51,24.33-3.19,6.1-6.51,12.14-9.01,18.57-.4,1.04-.46,1.84.7,2.3,1.17.46,1.72-.22,2.12-1.2.57-1.37,1.15-2.74,1.77-4.09,4.8-10.49,10.74-20.37,16.42-30.38,7.1-12.51,14.08-25.09,22.02-37.1.56-.84.55-1.58-.23-2.18-.79-.6-1.57-.38-2.18.37-.31.38-.6.79-.87,1.21-4.67,7.09-8.9,14.45-13.18,21.78-.44.64-.89,1.28-1.3,1.96-.04.1-.09.18-.14.27.09-.48.26-1.98.4-2.27,0,0,0,0,0,0,.76-2.77,1.34-5.58,1.51-8.45.36-6.03-1.59-10.95-7.01-14.12-.04-.02-.08-.04-.12-.07,0,0,0,0,0,0-.75-.41-4.91-2.89-7.79-3.37,0,0,11.4-1.24,13.03-1.4,10.53-.69,21.07-1.01,31.62-.9,4,.04,8,.1,12,.27,10.17.66,15.62,1.52,17.14,1.8.11.02.21.04.32.06.02,0,.04,0,.05.01,0,0,0,0,0,0,.59.09,1.19.12,1.78.18,1.05.1,1.77-.31,1.89-1.35.12-1.1-.57-1.74-1.59-1.97Z"/>
            <path class="cls-29" d="M224.28,93.64c-.51-.93-1.39-.98-2.3-.53-.39.19-.79.39-1.19.58-7.34,3.48-14.78,6.72-22.61,8.93-3.08.8-8.37,1.72-9.02,1.79-1.04.09-2.08.12-3.13.07-3.55-.18-4.44-1.49-3.2-4.79.14-.36.34-.69.49-1.05.28-.69.7-.7,1.43-.62,4.85.58,8.87-1.16,12.1-4.73,1.07-1.18,1.63-2.71.85-4.29-.83-1.68-2.36-2.23-4.14-2.17-3.56.14-6.18,2.11-8.6,4.44-.64.61-1.2,1.26-2.16,1.42-.23.04-.46.08-.69.11-.35.06-.7.12-1.05.17-2.85.48-10.53,1.77-11.83,2.02-.04,0-.07.02-.11.02-.01,0-.03,0-.04,0,0,0-.02,0-.02,0-.22.04-.43.07-.65.1-2.78.48-7.68,1.89-10.73,2.43-1.26.22-2.21.3-2.55.11,0,0,0,0,0,0-.16-.08-.31-.18-.47-.3-1.5-1.13-3.21-1.82-5.07-2.13-1.3-.34-2.63-.57-3.89-1.04-.29-.11-.58-.19-.87-.28,0,0,0,0,0,0-1.41-.58-.45-1.24.31-1.61,3.7-1.67,7.61-2.55,11.63-2.99.37-.04.83-.15,1.06.24.31.52-.21.82-.49,1.09-.56.53-1.23.93-1.8,1.45-.57.52-.87,1.18-.34,1.91.53.72,1.22.93,2.03.5,1.53-.81,2.87-1.86,3.7-3.43,1.05-1.99.35-4.01-1.58-4.54-.58-.16-1.2-.23-1.8-.21-5.36.16-10.65,1.17-15.15,4.02-2.58,1.63-5.17,2.16-7.95,2.66-.34.06-.68.13-1.02.19h0s-11.66,2.17-11.66,2.17h0c-.54.1-1.08.21-1.61.33-2.22.48-4.41,1.07-6.62,1.55-1.05.23-1.84.17-2.74-.51-.84-.64-1.77-1.11-2.76-1.45,0,0,0,0,0,0-1.43-.8-5.11-1.12-7.26-1.85-1.04-.61-.33-1.13.52-1.52,3.79-1.57,7.71-2.61,11.79-3.03.42-.04.95-.22,1.2.26.27.52-.27.8-.56,1.07-.52.49-1.15.86-1.68,1.34-.61.55-1.02,1.23-.42,2.03.53.7,1.24.91,2.04.46,1.36-.76,2.6-1.64,3.43-3.03,1.38-2.34,1.06-3.6-1.34-5-.92-.36-1.85-.41-2.78-.32,0,0,0,0-.01,0-7.96.83-11.65,2.63-12.87,3.24-.09.04-.18.09-.26.13-.01,0-.02.01-.03.02h0c-.61.32-1.19.7-1.72,1.17-2.2,1.91-4.64,3.3-7.15,4.65-4.92,2.65-9.78,5.44-15.09,7.29,0,0,0,0,0,0-5.85,1.87-5.38-1.37-5.2-2.26.58-2.7,1.83-5.13,3.19-7.53.88-1.55.46-2.35-1.23-2.59-.55.57-.96.1-1.44-.15-.87-.45-1.67-1-2.67-1.25-2.96-.73-5.66-.09-8.27,1.27-4.1,2.24-6.96,5.55-8.22,10.05-1.07,3.82,1.58,6.27,5.42,5.22,2.43-.67,4.52-1.99,6.52-3.47,1.17-.87,2.29-1.79,3.65-2.86-.02,1.44-.11,2.59-.02,3.72.18,2.5,1.68,3.88,4.18,3.99,1.35.06,2.63-.32,3.87-.74,5.98-2.04,11.52-5.02,17-8.1h0s.01,0,.02,0c.31-.17.61-.34.92-.52,1.16-.59,3.23-1.36,5.84-.84,2.11.55,4.25.96,6.31,1.69.3.11.62.18.91.32.31.19.71.54-.14.81-1.6.49-3.18.97-4.75,1.5-2.98.99-5.94,2.04-8.46,3.98-1.77,1.37-2.32,2.84-1.78,4.42.52,1.53,1.99,2.38,4.13,2.41,1.68.02,3.29-.39,4.84-.94,4.74-1.67,9.09-3.93,11.83-8.43.26-.42.29-.96.7-1.3,1.07-.24,2.14-.49,3.21-.73l13.88-2.84,7.96-1.63c.18,0,2.32-.19,3.78.66,0,0,.01,0,.02.01.83.44,3.63,1.19,5.96,1.9,1.48.45,2.77.89,3.22,1.23-3.15.82-6.04,1.72-8.85,2.85-2.29.93-4.62,1.88-6.3,3.81-1.75,2.01-1.01,4.7,1.5,5.57,1.64.57,3.27.27,4.89-.14,5.08-1.3,9.83-3.45,12.82-7.85.68-1,1.37-1.73,2.16-2.25.54-.31,1.6-.66,2.98-1.04,6.23-1.72,18.98-3.92,19.62-4.02.01,0,.02,0,.03,0,.44-.09.85-.1,1.11.3.16.24.08.54-.08.86-.27.46-1.72,2.25-1.6,4.99,0,0,0,.01,0,.02-.03,2.43,1.37,4.16,4.08,4.89,3.52.94,7.02.37,10.49-.32,6.78-1.36,13.25-3.73,19.6-6.41,3.35-1.41,6.62-3,9.92-4.52.98-.45,1.51-1.23.95-2.27ZM186.69,94.06c1.71-1.99,3.72-3.59,6.36-4.2.59-.14,1.3-.17,1.66.41.39.64-.16,1.18-.57,1.58-1.91,1.88-4.32,2.75-6.43,3.24-1.52.14-1.48-.49-1.01-1.03ZM68.52,93.32c-2.81,2.64-5.68,5.2-8.87,7.39-.91.62-1.83,1.23-2.89,1.57-1.34.44-1.86.02-1.69-2.03,1.1-3.6,3.78-6.56,7.67-8.46,1.63-.8,3.37-1.03,5.14-.53.51.15,1.19.36,1.41.75.3.56-.39.94-.77,1.3ZM107.94,102.52h0s0,0,0,0c-.53.82-2.43,2.01-3.94,2.85-.45.26-.91.5-1.38.73-.24.12-.42.21-.53.25-.06.02-.13.06-.23.1-.66.29-1.34.55-2.03.78-1.82.65-4.16,1.31-4.96.78-.02-.02-.05-.04-.07-.06-.03-.02-.05-.05-.08-.08,0,0,0-.01-.01-.02-.07-.09-.11-.21-.12-.35,0-.02,0-.03,0-.05,0,0,0,0,0,0,0,0,0,0,0-.01,0-.15.06-.27.15-.37,1.36-2.13,11.41-6.11,13.05-5.34.35.17.36.44.16.77,0,0,0,0,0,0ZM151.69,102.69c-.02.07-.06.15-.11.23,0,0,0,0,0,0h0s0,0,0,0c-.53.82-2.43,2.01-3.94,2.85-.34.19-.68.37-1.02.55-.12.06-.24.12-.36.18-.24.12-.42.21-.53.25-.06.02-.13.06-.23.1-.66.29-1.34.55-2.03.78-1.82.65-4.16,1.31-4.96.78-.02-.02-.05-.04-.07-.06-.03-.02-.05-.05-.08-.08,0,0,0-.01-.01-.02-.07-.09-.11-.21-.12-.35,0-.02,0-.03,0-.05,0,0,0,0,0,0,0,0,0,0,0-.01,0-.15.06-.27.15-.37.1-.16.26-.33.45-.51,2.38-2.19,11.08-5.55,12.6-4.83.07.03.12.07.16.11.13.12.16.26.1.43Z"/>
          </g>
        </g>
      </g>
    </g>
  </g>
</svg>